Oxygen.ufo
<glyph name="exclam" format="1">
  <advance width="586"/>
  <unicode hex="0021"/>
  <outline>
    <contour>
      <point x="160" y="120" type="curve" smooth="yes"/>
      <point x="160" y="186"/>
      <point x="205" y="252"/>
      <point x="293" y="252" type="curve" smooth="yes"/>
      <point x="382" y="252"/>
      <point x="426" y="186"/>
      <point x="426" y="120" type="curve" smooth="yes"/>
      <point x="426" y="54"/>
      <point x="382" y="-12"/>
      <point x="293" y="-12" type="curve" smooth="yes"/>
      <point x="205" y="-12"/>
      <point x="160" y="54"/>
    </contour>
    <contour>
      <point x="391" y="1496" type="line"/>
      <point x="391" y="1354" type="line"/>
      <point x="335" y="435" type="line"/>
      <point x="256" y="435" type="line"/>
      <point x="194" y="1354" type="line"/>
      <point x="194" y="1496" type="line"/>
    </contour>
  </outline>
</glyph>
<glyph name="numbersign" format="1">
  <advance width="1134"/>
  <unicode hex="0023"/>
  <outline>
    <contour>
      <point x="1032" y="1055" type="line"/>
      <point x="1018" y="931" type="line"/>
      <point x="871" y="931" type="line"/>
      <point x="804" y="536" type="line"/>
      <point x="951" y="536" type="line"/>
      <point x="941" y="410" type="line"/>
      <point x="786" y="410" type="line"/>
      <point x="700" y="-23" type="line"/>
      <point x="549" y="-23" type="line"/>
      <point x="633" y="410" type="line"/>
      <point x="398" y="410" type="line"/>
      <point x="318" y="-23" type="line"/>
      <point x="189" y="-23" type="line"/>
      <point x="262" y="410" type="line"/>
      <point x="91" y="410" type="line"/>
      <point x="101" y="536" type="line"/>
      <point x="284" y="536" type="line"/>
      <point x="345" y="930" type="line"/>
      <point x="168" y="930" type="line"/>
      <point x="177" y="1055" type="line"/>
      <point x="370" y="1055" type="line"/>
      <point x="453" y="1462" type="line"/>
      <point x="606" y="1462" type="line"/>
      <point x="527" y="1055" type="line"/>
      <point x="761" y="1055" type="line"/>
      <point x="832" y="1462" type="line"/>
      <point x="960" y="1462" type="line"/>
      <point x="894" y="1055" type="line"/>
    </contour>
    <contour>
      <point x="737" y="931" type="line"/>
      <point x="502" y="931" type="line"/>
      <point x="422" y="536" type="line"/>
      <point x="658" y="536" type="line"/>
    </contour>
  </outline>
</glyph>
<glyph name="dollar" format="1">
  <advance width="1241"/>
  <unicode hex="0024"/>
  <outline>
    <component base="S"/>
    <contour>
      <point x="580" y="1693" type="line"/>
      <point x="675" y="1693" type="line"/>
      <point x="675" y="-195" type="line"/>
      <point x="580" y="-195" type="line"/>
    </contour>
  </outline>
</glyph>
<glyph name="percent" format="1">
  <advance width="1877"/>
  <unicode hex="0025"/>
  <outline>
    <contour>
      <point x="1431" y="754" type="curve" smooth="yes"/>
      <point x="1663" y="754"/>
      <point x="1784" y="590"/>
      <point x="1784" y="369" type="curve" smooth="yes"/>
      <point x="1784" y="153"/>
      <point x="1660" y="-15"/>
      <point x="1431" y="-15" type="curve" smooth="yes"/>
      <point x="1200" y="-15"/>
      <point x="1079" y="153"/>
      <point x="1079" y="369" type="curve" smooth="yes"/>
      <point x="1079" y="587"/>
      <point x="1203" y="754"/>
    </contour>
    <contour>
      <point x="1431" y="640" type="curve" smooth="yes"/>
      <point x="1281" y="640"/>
      <point x="1205" y="510"/>
      <point x="1205" y="369" type="curve" smooth="yes"/>
      <point x="1205" y="223"/>
      <point x="1283" y="98"/>
      <point x="1431" y="98" type="curve" smooth="yes"/>
      <point x="1581" y="98"/>
      <point x="1657" y="228"/>
      <point x="1657" y="369" type="curve" smooth="yes"/>
      <point x="1657" y="515"/>
      <point x="1579" y="640"/>
    </contour>
    <contour>
      <point x="420" y="1489" type="curve" smooth="yes"/>
      <point x="616" y="1489"/>
      <point x="740" y="1325"/>
      <point x="740" y="1104" type="curve" smooth="yes"/>
      <point x="740" y="888"/>
      <point x="615" y="728"/>
      <point x="420" y="728" type="curve" smooth="yes"/>
      <point x="224" y="728"/>
      <point x="103" y="888"/>
      <point x="103" y="1104" type="curve" smooth="yes"/>
      <point x="103" y="1322"/>
      <point x="225" y="1489"/>
    </contour>
    <contour>
      <point x="401" y="-4" type="line"/>
      <point x="1196" y="1462" type="line"/>
      <point x="1358" y="1462" type="line"/>
      <point x="536" y="-4" type="line"/>
    </contour>
    <contour>
      <point x="420" y="1378" type="curve" smooth="yes"/>
      <point x="293" y="1378"/>
      <point x="230" y="1245"/>
      <point x="230" y="1104" type="curve" smooth="yes"/>
      <point x="230" y="957"/>
      <point x="295" y="844"/>
      <point x="420" y="844" type="curve" smooth="yes"/>
      <point x="547" y="844"/>
      <point x="611" y="964"/>
      <point x="611" y="1104" type="curve" smooth="yes"/>
      <point x="611" y="1250"/>
      <point x="544" y="1378"/>
    </contour>
  </outline>
</glyph>
<glyph name="quotesingle" format="1">
  <advance width="393"/>
  <unicode hex="0027"/>
  <outline>
    <contour>
      <point x="248" y="1016" type="line"/>
      <point x="143" y="1016" type="line"/>
      <point x="122" y="1510" type="line"/>
      <point x="277" y="1510" type="line"/>
    </contour>
  </outline>
</glyph>
<glyph name="parenleft" format="1">
  <advance width="612"/>
  <unicode hex="0028"/>
  <outline>
    <contour>
      <point x="125" y="636" type="curve" smooth="yes"/>
      <point x="125" y="954"/>
      <point x="221" y="1241"/>
      <point x="370" y="1510" type="curve"/>
      <point x="518" y="1510" type="line"/>
      <point x="373" y="1243"/>
      <point x="290" y="951"/>
      <point x="290" y="642" type="curve" smooth="yes"/>
      <point x="290" y="357"/>
      <point x="379" y="33"/>
      <point x="520" y="-218" type="curve"/>
      <point x="373" y="-218" type="line"/>
      <point x="232" y="22"/>
      <point x="125" y="330"/>
    </contour>
  </outline>
</glyph>
<glyph name="parenright" format="1">
  <advance width="612"/>
  <unicode hex="0029"/>
  <outline>
    <contour>
      <point x="238" y="-218" type="curve"/>
      <point x="93" y="-218" type="line"/>
      <point x="232" y="33"/>
      <point x="322" y="356"/>
      <point x="322" y="642" type="curve" smooth="yes"/>
      <point x="322" y="951"/>
      <point x="238" y="1243"/>
      <point x="93" y="1510" type="curve"/>
      <point x="241" y="1510" type="line"/>
      <point x="388" y="1240"/>
      <point x="488" y="955"/>
      <point x="488" y="636" type="curve" smooth="yes"/>
      <point x="488" y="329"/>
      <point x="378" y="24"/>
    </contour>
  </outline>
</glyph>
<glyph name="plus" format="1">
  <advance width="1081"/>
  <unicode hex="002B"/>
  <outline>
    <contour>
      <point x="101" y="646" type="line"/>
      <point x="487" y="646" type="line"/>
      <point x="487" y="1065" type="line"/>
      <point x="621" y="1065" type="line"/>
      <point x="621" y="646" type="line"/>
      <point x="989" y="646" type="line"/>
      <point x="989" y="512" type="line"/>
      <point x="619" y="512" type="line"/>
      <point x="619" y="80" type="line"/>
      <point x="484" y="80" type="line"/>
      <point x="484" y="512" type="line"/>
      <point x="101" y="512" type="line"/>
    </contour>
  </outline>
</glyph>
<glyph name="comma" format="1">
  <advance width="508"/>
  <unicode hex="002C"/>
  <outline>
    <contour>
      <point x="367" y="230" type="line"/>
      <point x="241" y="-292" type="line"/>
      <point x="135" y="-292" type="line"/>
      <point x="155" y="230" type="line"/>
    </contour>
  </outline>
</glyph>
<glyph name="period" format="1">
  <advance width="494"/>
  <unicode hex="002E"/>
  <outline>
    <contour>
      <point x="261" y="-12" type="curve" smooth="yes"/>
      <point x="173" y="-12"/>
      <point x="128" y="54"/>
      <point x="128" y="120" type="curve" smooth="yes"/>
      <point x="128" y="186"/>
      <point x="172" y="252"/>
      <point x="261" y="252" type="curve" smooth="yes"/>
      <point x="350" y="252"/>
      <point x="394" y="186"/>
      <point x="394" y="120" type="curve" smooth="yes"/>
      <point x="394" y="54"/>
      <point x="350" y="-12"/>
    </contour>
  </outline>
</glyph>
<glyph name="slash" format="1">
  <advance width="952"/>
  <unicode hex="002F"/>
  <outline>
    <contour>
      <point x="194" y="-218" type="line"/>
      <point x="50" y="-218" type="line"/>
      <point x="726" y="1466" type="line"/>
      <point x="872" y="1466" type="line"/>
    </contour>
  </outline>
</glyph>
<glyph name="zero" format="1">
  <advance width="1200"/>
  <unicode hex="0030"/>
  <outline>
    <contour>
      <point x="602" y="-23" type="curve" smooth="yes"/>
      <point x="238" y="-23"/>
      <point x="88" y="312"/>
      <point x="88" y="751" type="curve" smooth="yes"/>
      <point x="88" y="1210"/>
      <point x="253" y="1525"/>
      <point x="602" y="1525" type="curve" smooth="yes"/>
      <point x="951" y="1525"/>
      <point x="1112" y="1210"/>
      <point x="1112" y="751" type="curve" smooth="yes"/>
      <point x="1112" y="312"/>
      <point x="966" y="-23"/>
    </contour>
    <contour>
      <point x="602" y="1373" type="curve" smooth="yes"/>
      <point x="394" y="1373"/>
      <point x="280" y="1113"/>
      <point x="280" y="757" type="curve" smooth="yes"/>
      <point x="280" y="394"/>
      <point x="394" y="129"/>
      <point x="602" y="129" type="curve" smooth="yes"/>
      <point x="810" y="129"/>
      <point x="922" y="394"/>
      <point x="922" y="757" type="curve" smooth="yes"/>
      <point x="922" y="1113"/>
      <point x="810" y="1373"/>
    </contour>
  </outline>
</glyph>
<glyph name="one" format="1">
  <advance width="1200"/>
  <unicode hex="0031"/>
  <outline>
    <contour>
      <point x="589" y="1496" type="curve"/>
      <point x="748" y="1496" type="line"/>
      <point x="748" y="0" type="line"/>
      <point x="571" y="0" type="line"/>
      <point x="571" y="1311" type="line"/>
      <point x="492" y="1259"/>
      <point x="396" y="1221"/>
      <point x="324" y="1198" type="curve"/>
      <point x="324" y="1365" type="line"/>
      <point x="412" y="1404"/>
      <point x="510" y="1440"/>
    </contour>
  </outline>
</glyph>
<glyph name="five" format="1">
  <advance width="1200"/>
  <unicode hex="0035"/>
  <outline>
    <contour>
      <point x="1041" y="1496" type="line"/>
      <point x="1027" y="1332" type="line"/>
      <point x="415" y="1332" type="line"/>
      <point x="410" y="1187"/>
      <point x="405" y="1006"/>
      <point x="401" y="861" type="curve"/>
      <point x="481" y="912"/>
      <point x="561" y="933"/>
      <point x="645" y="933" type="curve" smooth="yes"/>
      <point x="948" y="933"/>
      <point x="1100" y="731"/>
      <point x="1100" y="477" type="curve" smooth="yes"/>
      <point x="1100" y="178"/>
      <point x="896" y="-23"/>
      <point x="559" y="-23" type="curve" smooth="yes"/>
      <point x="384" y="-23"/>
      <point x="246" y="33"/>
      <point x="157" y="114" type="curve"/>
      <point x="223" y="255" type="line"/>
      <point x="287" y="205"/>
      <point x="399" y="139"/>
      <point x="565" y="139" type="curve" smooth="yes"/>
      <point x="787" y="139"/>
      <point x="919" y="279"/>
      <point x="919" y="475" type="curve" smooth="yes"/>
      <point x="919" y="648"/>
      <point x="814" y="776"/>
      <point x="611" y="776" type="curve" smooth="yes"/>
      <point x="516" y="776"/>
      <point x="436" y="746"/>
      <point x="373" y="677" type="curve"/>
      <point x="235" y="696" type="line"/>
      <point x="273" y="1496" type="line"/>
    </contour>
  </outline>
</glyph>
<glyph name="seven" format="1">
  <advance width="1200"/>
  <unicode hex="0037"/>
  <outline>
    <contour>
      <point x="355" y="0" type="line"/>
      <point x="869" y="1341" type="line"/>
      <point x="194" y="1341" type="line"/>
      <point x="205" y="1496" type="line"/>
      <point x="1072" y="1496" type="line"/>
      <point x="1072" y="1360" type="line"/>
      <point x="537" y="0" type="line"/>
    </contour>
  </outline>
</glyph>
<glyph name="eight" format="1">
  <advance width="1200"/>
  <unicode hex="0038"/>
  <outline>
    <contour>
      <point x="603" y="-23" type="curve" smooth="yes"/>
      <point x="336" y="-23"/>
      <point x="112" y="119"/>
      <point x="112" y="385" type="curve" smooth="yes"/>
      <point x="112" y="577"/>
      <point x="228" y="724"/>
      <point x="423" y="788" type="curve"/>
      <point x="250" y="849"/>
      <point x="143" y="966"/>
      <point x="143" y="1148" type="curve" smooth="yes"/>
      <point x="143" y="1389"/>
      <point x="338" y="1525"/>
      <point x="603" y="1525" type="curve" smooth="yes"/>
      <point x="867" y="1525"/>
      <point x="1058" y="1389"/>
      <point x="1058" y="1148" type="curve" smooth="yes"/>
      <point x="1058" y="966"/>
      <point x="957" y="849"/>
      <point x="800" y="788" type="curve"/>
      <point x="979" y="724"/>
      <point x="1089" y="577"/>
      <point x="1089" y="385" type="curve" smooth="yes"/>
      <point x="1089" y="119"/>
      <point x="870" y="-23"/>
    </contour>
    <contour>
      <point x="603" y="703" type="curve"/>
      <point x="424" y="662"/>
      <point x="288" y="562"/>
      <point x="288" y="397" type="curve" smooth="yes"/>
      <point x="288" y="230"/>
      <point x="424" y="129"/>
      <point x="603" y="129" type="curve" smooth="yes"/>
      <point x="782" y="129"/>
      <point x="913" y="230"/>
      <point x="913" y="397" type="curve" smooth="yes"/>
      <point x="913" y="562"/>
      <point x="782" y="662"/>
    </contour>
    <contour>
      <point x="603" y="1373" type="curve" smooth="yes"/>
      <point x="455" y="1373"/>
      <point x="320" y="1296"/>
      <point x="320" y="1152" type="curve" smooth="yes"/>
      <point x="320" y="993"/>
      <point x="420" y="894"/>
      <point x="603" y="853" type="curve"/>
      <point x="786" y="894"/>
      <point x="882" y="993"/>
      <point x="882" y="1152" type="curve" smooth="yes"/>
      <point x="882" y="1296"/>
      <point x="751" y="1373"/>
    </contour>
  </outline>
</glyph>
<glyph name="nine" format="1">
  <advance width="1200"/>
  <unicode hex="0039"/>
  <outline>
    <contour>
      <point x="574" y="598" type="curve" smooth="yes"/>
      <point x="322" y="598"/>
      <point x="104" y="777"/>
      <point x="104" y="1053" type="curve" smooth="yes"/>
      <point x="104" y="1320"/>
      <point x="304" y="1525"/>
      <point x="610" y="1525" type="curve" smooth="yes"/>
      <point x="930" y="1525"/>
      <point x="1107" y="1312"/>
      <point x="1107" y="1042" type="curve" smooth="yes"/>
      <point x="1107" y="844"/>
      <point x="1044" y="712"/>
      <point x="890" y="504" type="curve"/>
      <point x="793" y="375"/>
      <point x="488" y="0"/>
      <point x="488" y="0" type="curve"/>
      <point x="268" y="0" type="line"/>
      <point x="798" y="658" type="line"/>
      <point x="734" y="624"/>
      <point x="654" y="598"/>
    </contour>
    <contour>
      <point x="918" y="1061" type="curve" smooth="yes"/>
      <point x="918" y="1234"/>
      <point x="822" y="1373"/>
      <point x="616" y="1373" type="curve" smooth="yes"/>
      <point x="411" y="1373"/>
      <point x="293" y="1228"/>
      <point x="293" y="1056" type="curve" smooth="yes"/>
      <point x="293" y="872"/>
      <point x="408" y="748"/>
      <point x="610" y="748" type="curve" smooth="yes"/>
      <point x="832" y="748"/>
      <point x="918" y="889"/>
    </contour>
  </outline>
</glyph>
<glyph name="semicolon" format="1">
  <advance width="518"/>
  <unicode hex="003B"/>
  <outline>
    <contour>
      <point x="174" y="893" type="line"/>
      <point x="174" y="1124" type="line"/>
      <point x="380" y="1124" type="line"/>
      <point x="380" y="893" type="line"/>
    </contour>
    <contour>
      <point x="376" y="197" type="line"/>
      <point x="251" y="-310" type="line"/>
      <point x="138" y="-310" type="line"/>
      <point x="194" y="197" type="line"/>
    </contour>
  </outline>
</glyph>
<glyph name="less" format="1">
  <advance width="1179"/>
  <unicode hex="003C"/>
  <outline>
    <contour>
      <point x="1061" y="982" type="line"/>
      <point x="294" y="596" type="line"/>
      <point x="1057" y="216" type="line"/>
      <point x="1057" y="50" type="line"/>
      <point x="103" y="547" type="line"/>
      <point x="103" y="642" type="line"/>
      <point x="1061" y="1149" type="line"/>
    </contour>
  </outline>
</glyph>
<glyph name="equal" format="1">
  <advance width="1286"/>
  <unicode hex="003D"/>
  <outline>
    <contour>
      <point x="143" y="891" type="line"/>
      <point x="1146" y="891" type="line"/>
      <point x="1146" y="741" type="line"/>
      <point x="143" y="741" type="line"/>
    </contour>
    <contour>
      <point x="145" y="452" type="line"/>
      <point x="1146" y="452" type="line"/>
      <point x="1146" y="305" type="line"/>
      <point x="145" y="305" type="line"/>
    </contour>
  </outline>
</glyph>
<glyph name="at" format="1">
  <advance width="1788"/>
  <unicode hex="0040"/>
  <outline>
    <contour>
      <point x="1212" y="297" type="curve" smooth="yes"/>
      <point x="1113" y="297"/>
      <point x="1044" y="344"/>
      <point x="1028" y="455" type="curve"/>
      <point x="960" y="356"/>
      <point x="879" y="316"/>
      <point x="790" y="316" type="curve" smooth="yes"/>
      <point x="646" y="316"/>
      <point x="542" y="434"/>
      <point x="542" y="631" type="curve" smooth="yes"/>
      <point x="542" y="891"/>
      <point x="664" y="1137"/>
      <point x="949" y="1137" type="curve" smooth="yes"/>
      <point x="1053" y="1137"/>
      <point x="1167" y="1104"/>
      <point x="1249" y="1075" type="curve"/>
      <point x="1201" y="843"/>
      <point x="1144" y="603"/>
      <point x="1144" y="524" type="curve" smooth="yes"/>
      <point x="1144" y="449"/>
      <point x="1177" y="418"/>
      <point x="1233" y="418" type="curve" smooth="yes"/>
      <point x="1363" y="418"/>
      <point x="1560" y="605"/>
      <point x="1560" y="841" type="curve" smooth="yes"/>
      <point x="1560" y="1193"/>
      <point x="1284" y="1405"/>
      <point x="911" y="1405" type="curve" smooth="yes"/>
      <point x="536" y="1405"/>
      <point x="230" y="1105"/>
      <point x="230" y="720" type="curve" smooth="yes"/>
      <point x="230" y="299"/>
      <point x="525" y="46"/>
      <point x="888" y="46" type="curve" smooth="yes"/>
      <point x="1071" y="46"/>
      <point x="1232" y="92"/>
      <point x="1344" y="185" type="curve"/>
      <point x="1414" y="97" type="line"/>
      <point x="1289" y="-18"/>
      <point x="1099" y="-75"/>
      <point x="886" y="-75" type="curve" smooth="yes"/>
      <point x="443" y="-75"/>
      <point x="101" y="235"/>
      <point x="101" y="720" type="curve" smooth="yes"/>
      <point x="101" y="1168"/>
      <point x="461" y="1525"/>
      <point x="916" y="1525" type="curve" smooth="yes"/>
      <point x="1345" y="1525"/>
      <point x="1687" y="1258"/>
      <point x="1687" y="839" type="curve" smooth="yes"/>
      <point x="1687" y="492"/>
      <point x="1418" y="297"/>
    </contour>
    <contour>
      <point x="814" y="442" type="curve" smooth="yes"/>
      <point x="992" y="442"/>
      <point x="1039" y="742"/>
      <point x="1087" y="998" type="curve"/>
      <point x="1060" y="1012"/>
      <point x="991" y="1019"/>
      <point x="952" y="1019" type="curve" smooth="yes"/>
      <point x="744" y="1019"/>
      <point x="675" y="810"/>
      <point x="675" y="621" type="curve" smooth="yes"/>
      <point x="675" y="513"/>
      <point x="725" y="442"/>
    </contour>
  </outline>
</glyph>
<glyph name="B" format="1">
  <advance width="1286"/>
  <unicode hex="0042"/>
  <outline>
    <contour>
      <point x="147" y="0" type="line"/>
      <point x="147" y="1496" type="line"/>
      <point x="583" y="1496" type="line" smooth="yes"/>
      <point x="944" y="1496"/>
      <point x="1151" y="1395"/>
      <point x="1151" y="1131" type="curve" smooth="yes"/>
      <point x="1151" y="988"/>
      <point x="1090" y="851"/>
      <point x="939" y="801" type="curve"/>
      <point x="1127" y="761"/>
      <point x="1213" y="585"/>
      <point x="1213" y="426" type="curve" smooth="yes"/>
      <point x="1213" y="163"/>
      <point x="1059" y="0"/>
      <point x="670" y="0" type="curve" smooth="yes"/>
    </contour>
    <contour>
      <point x="324" y="1352" type="line"/>
      <point x="324" y="850" type="line"/>
      <point x="678" y="850" type="line" smooth="yes"/>
      <point x="817" y="850"/>
      <point x="966" y="885"/>
      <point x="966" y="1096" type="curve" smooth="yes"/>
      <point x="966" y="1321"/>
      <point x="800" y="1352"/>
      <point x="557" y="1352" type="curve" smooth="yes"/>
    </contour>
    <contour>
      <point x="324" y="716" type="line"/>
      <point x="324" y="139" type="line"/>
      <point x="637" y="139" type="line" smooth="yes"/>
      <point x="897" y="139"/>
      <point x="1033" y="227"/>
      <point x="1033" y="428" type="curve" smooth="yes"/>
      <point x="1033" y="616"/>
      <point x="912" y="716"/>
      <point x="688" y="716" type="curve" smooth="yes"/>
    </contour>
  </outline>
</glyph>
<glyph name="F" format="1">
  <advance width="1025"/>
  <unicode hex="0046"/>
  <outline>
    <contour>
      <point x="940" y="838" type="line"/>
      <point x="940" y="695" type="line"/>
      <point x="324" y="695" type="line"/>
      <point x="324" y="0" type="line"/>
      <point x="147" y="0" type="line"/>
      <point x="147" y="1496" type="line"/>
      <point x="974" y="1496" type="line"/>
      <point x="960" y="1341" type="line"/>
      <point x="324" y="1341" type="line"/>
      <point x="324" y="838" type="line"/>
    </contour>
  </outline>
</glyph>
<glyph name="I" format="1">
  <advance width="509"/>
  <unicode hex="0049"/>
  <outline>
    <contour>
      <point x="340" y="1496" type="line"/>
      <point x="340" y="0" type="line"/>
      <point x="163" y="0" type="line"/>
      <point x="163" y="1496" type="line"/>
    </contour>
  </outline>
</glyph>
<glyph name="J" format="1">
  <advance width="550"/>
  <unicode hex="004A"/>
  <outline>
    <contour>
      <point x="226" y="181" type="curve" smooth="yes"/>
      <point x="226" y="1496" type="line"/>
      <point x="403" y="1496" type="line"/>
      <point x="403" y="241" type="line" smooth="yes"/>
      <point x="403" y="-67"/>
      <point x="368" y="-214"/>
      <point x="16" y="-214" type="curve" smooth="yes"/>
      <point x="-19" y="-214" type="line"/>
      <point x="-40" y="-72" type="line"/>
      <point x="34" y="-72" type="line" smooth="yes"/>
      <point x="216" y="-72"/>
      <point x="226" y="33"/>
    </contour>
  </outline>
</glyph>
<glyph name="K" format="1">
  <advance width="1228"/>
  <unicode hex="004B"/>
  <outline>
    <contour>
      <point x="582" y="799" type="line"/>
      <point x="1263" y="0" type="line"/>
      <point x="1040" y="0" type="line"/>
      <point x="440" y="703" type="line"/>
      <point x="323" y="602" type="line"/>
      <point x="323" y="0" type="line"/>
      <point x="146" y="0" type="line"/>
      <point x="146" y="1496" type="line"/>
      <point x="323" y="1496" type="line"/>
      <point x="323" y="770" type="line"/>
      <point x="961" y="1496" type="line"/>
      <point x="1194" y="1496" type="line"/>
    </contour>
  </outline>
</glyph>
<glyph name="L" format="1">
  <advance width="980"/>
  <unicode hex="004C"/>
  <outline>
    <contour>
      <point x="148" y="1496" type="line"/>
      <point x="325" y="1496" type="line"/>
      <point x="325" y="155" type="line"/>
      <point x="982" y="155" type="line"/>
      <point x="970" y="0" type="line"/>
      <point x="148" y="0" type="line"/>
    </contour>
  </outline>
</glyph>
<glyph name="M" format="1">
  <advance width="1785"/>
  <unicode hex="004D"/>
  <outline>
    <contour>
      <point x="316" y="1181" type="line"/>
      <point x="316" y="0" type="line"/>
      <point x="149" y="0" type="line"/>
      <point x="149" y="1496" type="line"/>
      <point x="341" y="1496" type="line"/>
      <point x="900" y="347" type="line"/>
      <point x="1453" y="1496" type="line"/>
      <point x="1636" y="1496" type="line"/>
      <point x="1636" y="0" type="line"/>
      <point x="1470" y="0" type="line"/>
      <point x="1470" y="1175" type="line"/>
      <point x="998" y="183" type="line"/>
      <point x="797" y="183" type="line"/>
    </contour>
  </outline>
</glyph>
<glyph name="N" format="1">
  <advance width="1488"/>
  <unicode hex="004E"/>
  <outline>
    <contour>
      <point x="1341" y="0" type="line"/>
      <point x="1144" y="0" type="line"/>
      <point x="314" y="1239" type="line"/>
      <point x="314" y="0" type="line"/>
      <point x="147" y="0" type="line"/>
      <point x="147" y="1496" type="line"/>
      <point x="341" y="1496" type="line"/>
      <point x="1178" y="253" type="line"/>
      <point x="1178" y="1496" type="line"/>
      <point x="1341" y="1496" type="line"/>
    </contour>
  </outline>
</glyph>
<glyph name="O" format="1">
  <advance width="1657"/>
  <unicode hex="004F"/>
  <outline>
    <contour>
      <point x="829" y="-23" type="curve" smooth="yes"/>
      <point x="349" y="-23"/>
      <point x="99" y="308"/>
      <point x="99" y="746" type="curve" smooth="yes"/>
      <point x="99" y="1211"/>
      <point x="366" y="1525"/>
      <point x="829" y="1525" type="curve" smooth="yes"/>
      <point x="1292" y="1525"/>
      <point x="1558" y="1211"/>
      <point x="1558" y="746" type="curve" smooth="yes"/>
      <point x="1558" y="308"/>
      <point x="1308" y="-23"/>
    </contour>
    <contour>
      <point x="829" y="1373" type="curve" smooth="yes"/>
      <point x="469" y="1373"/>
      <point x="288" y="1123"/>
      <point x="288" y="746" type="curve" smooth="yes"/>
      <point x="288" y="402"/>
      <point x="453" y="129"/>
      <point x="829" y="129" type="curve" smooth="yes"/>
      <point x="1205" y="129"/>
      <point x="1369" y="402"/>
      <point x="1369" y="746" type="curve" smooth="yes"/>
      <point x="1369" y="1119"/>
      <point x="1190" y="1373"/>
    </contour>
  </outline>
</glyph>
<glyph name="R" format="1">
  <advance width="1339"/>
  <unicode hex="0052"/>
  <outline>
    <contour>
      <point x="1272" y="0" type="line"/>
      <point x="1072" y="0" type="line"/>
      <point x="868" y="464" type="line" smooth="yes"/>
      <point x="829" y="552"/>
      <point x="793" y="638"/>
      <point x="762" y="689" type="curve"/>
      <point x="733" y="687"/>
      <point x="623" y="684"/>
      <point x="589" y="684" type="curve" smooth="yes"/>
      <point x="570" y="684"/>
      <point x="324" y="692"/>
      <point x="324" y="692" type="curve"/>
      <point x="324" y="0" type="line"/>
      <point x="147" y="0" type="line"/>
      <point x="147" y="1496" type="line"/>
      <point x="620" y="1496" type="line" smooth="yes"/>
      <point x="976" y="1496"/>
      <point x="1202" y="1442"/>
      <point x="1202" y="1105" type="curve" smooth="yes"/>
      <point x="1202" y="920"/>
      <point x="1102" y="777"/>
      <point x="920" y="724" type="curve"/>
      <point x="920" y="719"/>
      <point x="996" y="597"/>
      <point x="1030" y="522" type="curve" smooth="yes"/>
    </contour>
    <contour>
      <point x="324" y="1341" type="line"/>
      <point x="324" y="841" type="line"/>
      <point x="447" y="840"/>
      <point x="569" y="837"/>
      <point x="692" y="837" type="curve" smooth="yes"/>
      <point x="956" y="837"/>
      <point x="1033" y="926"/>
      <point x="1033" y="1102" type="curve" smooth="yes"/>
      <point x="1033" y="1258"/>
      <point x="953" y="1341"/>
      <point x="720" y="1341" type="curve" smooth="yes"/>
    </contour>
  </outline>
</glyph>
<glyph name="U" format="1">
  <advance width="1386"/>
  <unicode hex="0055"/>
  <outline>
    <contour>
      <point x="688" y="-23" type="curve" smooth="yes"/>
      <point x="253" y="-23"/>
      <point x="127" y="202"/>
      <point x="127" y="523" type="curve" smooth="yes"/>
      <point x="127" y="1496" type="line"/>
      <point x="304" y="1496" type="line"/>
      <point x="304" y="529" type="line" smooth="yes"/>
      <point x="304" y="237"/>
      <point x="418" y="125"/>
      <point x="688" y="125" type="curve" smooth="yes"/>
      <point x="957" y="125"/>
      <point x="1073" y="237"/>
      <point x="1073" y="529" type="curve" smooth="yes"/>
      <point x="1073" y="1496" type="line"/>
      <point x="1250" y="1496" type="line"/>
      <point x="1250" y="523" type="line" smooth="yes"/>
      <point x="1250" y="202"/>
      <point x="1124" y="-23"/>
    </contour>
  </outline>
</glyph>
<glyph name="V" format="1">
  <advance width="1265"/>
  <unicode hex="0056"/>
  <outline>
    <contour>
      <point x="632" y="194" type="line"/>
      <point x="632" y="194"/>
      <point x="930" y="1052"/>
      <point x="1089" y="1496" type="curve"/>
      <point x="1275" y="1496" type="line"/>
      <point x="728" y="0" type="line"/>
      <point x="536" y="0" type="line"/>
      <point x="-10" y="1496" type="line"/>
      <point x="181" y="1496" type="line"/>
    </contour>
  </outline>
</glyph>
<glyph name="W" format="1">
  <advance width="2131"/>
  <unicode hex="0057"/>
  <outline>
    <contour>
      <point x="1541" y="195" type="line"/>
      <point x="1976" y="1496" type="line"/>
      <point x="2158" y="1496" type="line"/>
      <point x="1645" y="0" type="line"/>
      <point x="1435" y="0" type="line"/>
      <point x="1084" y="1225" type="line"/>
      <point x="684" y="0" type="line"/>
      <point x="476" y="0" type="line"/>
      <point x="-27" y="1496" type="line"/>
      <point x="156" y="1496" type="line"/>
      <point x="586" y="197" type="line"/>
      <point x="976" y="1442" type="line"/>
      <point x="1186" y="1442" type="line"/>
    </contour>
  </outline>
</glyph>
<glyph name="X" format="1">
  <advance width="1299"/>
  <unicode hex="0058"/>
  <outline>
    <contour>
      <point x="11" y="0" type="line"/>
      <point x="536" y="781" type="line"/>
      <point x="43" y="1496" type="line"/>
      <point x="257" y="1496" type="line"/>
      <point x="660" y="892" type="line"/>
      <point x="1090" y="1496" type="line"/>
      <point x="1280" y="1496" type="line"/>
      <point x="781" y="781" type="line"/>
      <point x="1288" y="0" type="line"/>
      <point x="1083" y="0" type="line"/>
      <point x="653" y="680" type="line"/>
      <point x="206" y="0" type="line"/>
    </contour>
  </outline>
</glyph>
<glyph name="Z" format="1">
  <advance width="1200"/>
  <unicode hex="005A"/>
  <outline>
    <contour>
      <point x="1157" y="1496" type="line"/>
      <point x="1157" y="1372" type="line"/>
      <point x="315" y="155" type="line"/>
      <point x="1149" y="155" type="line"/>
      <point x="1137" y="0" type="line"/>
      <point x="91" y="0" type="line"/>
      <point x="91" y="139" type="line"/>
      <point x="922" y="1341" type="line"/>
      <point x="125" y="1341" type="line"/>
      <point x="125" y="1496" type="line"/>
    </contour>
  </outline>
</glyph>
<glyph name="bracketleft" format="1">
  <advance width="678"/>
  <unicode hex="005B"/>
  <outline>
    <contour>
      <point x="570" y="-139" type="line"/>
      <point x="570" y="-261" type="line"/>
      <point x="121" y="-261" type="line"/>
      <point x="121" y="1505" type="line"/>
      <point x="570" y="1505" type="line"/>
      <point x="570" y="1381" type="line"/>
      <point x="299" y="1381" type="line"/>
      <point x="299" y="-139" type="line"/>
    </contour>
  </outline>
</glyph>
<glyph name="asciicircum" format="1">
  <advance width="1204"/>
  <unicode hex="005E"/>
  <outline>
    <contour>
      <point x="227" y="627" type="line"/>
      <point x="90" y="627" type="line"/>
      <point x="546" y="1559" type="line"/>
      <point x="651" y="1559" type="line"/>
      <point x="1113" y="627" type="line"/>
      <point x="979" y="627" type="line"/>
      <point x="595" y="1375" type="line"/>
    </contour>
  </outline>
</glyph>
<glyph name="grave" format="1">
  <advance width="643"/>
  <unicode hex="0060"/>
  <outline>
    <contour>
      <point x="408" y="1251" type="line"/>
      <point x="85" y="1638" type="line"/>
      <point x="335" y="1638" type="line"/>
      <point x="520" y="1251" type="line"/>
    </contour>
  </outline>
</glyph>
<glyph name="c" format="1">
  <advance width="962"/>
  <unicode hex="0063"/>
  <outline>
    <contour>
      <point x="897" y="76" type="line"/>
      <point x="825" y="9"/>
      <point x="709" y="-24"/>
      <point x="600" y="-24" type="curve" smooth="yes"/>
      <point x="259" y="-24"/>
      <point x="70" y="243"/>
      <point x="70" y="549" type="curve"/>
      <point x="72" y="852"/>
      <point x="270" y="1122"/>
      <point x="597" y="1122" type="curve" smooth="yes"/>
      <point x="725" y="1122"/>
      <point x="834" y="1086"/>
      <point x="896" y="1027" type="curve"/>
      <point x="854" y="908" type="line"/>
      <point x="770" y="964"/>
      <point x="678" y="984"/>
      <point x="595" y="984" type="curve" smooth="yes"/>
      <point x="394" y="984"/>
      <point x="241" y="799"/>
      <point x="241" y="545" type="curve" smooth="yes"/>
      <point x="241" y="294"/>
      <point x="388" y="114"/>
      <point x="608" y="114" type="curve" smooth="yes"/>
      <point x="707" y="114"/>
      <point x="794" y="153"/>
      <point x="855" y="196" type="curve"/>
    </contour>
  </outline>
</glyph>
<glyph name="e" format="1">
  <advance width="1068"/>
  <unicode hex="0065"/>
  <outline>
    <contour>
      <point x="250" y="635" type="curve"/>
      <point x="835" y="635" type="line"/>
      <point x="835" y="869"/>
      <point x="718" y="988"/>
      <point x="555" y="988" type="curve" smooth="yes"/>
      <point x="389" y="988"/>
      <point x="269" y="851"/>
    </contour>
    <contour>
      <point x="576" y="-25" type="curve" smooth="yes"/>
      <point x="263" y="-25"/>
      <point x="72" y="198"/>
      <point x="72" y="551" type="curve" smooth="yes"/>
      <point x="72" y="879"/>
      <point x="270" y="1116"/>
      <point x="556" y="1124" type="curve"/>
      <point x="829" y="1124"/>
      <point x="997" y="918"/>
      <point x="997" y="594" type="curve" smooth="yes"/>
      <point x="997" y="578"/>
      <point x="995" y="538"/>
      <point x="995" y="519" type="curve"/>
      <point x="244" y="519" type="line"/>
      <point x="244" y="272"/>
      <point x="388" y="119"/>
      <point x="581" y="119" type="curve" smooth="yes"/>
      <point x="737" y="119"/>
      <point x="851" y="176"/>
      <point x="929" y="229" type="curve"/>
      <point x="981" y="107" type="line"/>
      <point x="891" y="30"/>
      <point x="752" y="-25"/>
    </contour>
  </outline>
</glyph>
<glyph name="f" format="1">
  <advance width="644"/>
  <unicode hex="0066"/>
  <outline>
    <contour>
      <point x="39" y="980" type="line"/>
      <point x="39" y="1098" type="line"/>
      <point x="200" y="1098" type="line"/>
      <point x="200" y="1130" type="line" smooth="yes"/>
      <point x="205" y="1455"/>
      <point x="293" y="1536"/>
      <point x="558" y="1536" type="curve" smooth="yes"/>
      <point x="631" y="1536" type="line"/>
      <point x="651" y="1408" type="line"/>
      <point x="557" y="1408" type="line" smooth="yes"/>
      <point x="383" y="1408"/>
      <point x="369" y="1338"/>
      <point x="368" y="1130" type="curve" smooth="yes"/>
      <point x="368" y="1098" type="line"/>
      <point x="617" y="1098" type="line"/>
      <point x="617" y="980" type="line"/>
      <point x="368" y="980" type="line"/>
      <point x="368" y="0" type="line"/>
      <point x="200" y="0" type="line"/>
      <point x="200" y="980" type="line"/>
    </contour>
  </outline>
</glyph>
<glyph name="h" format="1">
  <advance width="1112"/>
  <unicode hex="0068"/>
  <outline>
    <contour>
      <point x="282" y="0" type="line"/>
      <point x="114" y="0" type="line"/>
      <point x="114" y="1490" type="line"/>
      <point x="282" y="1510" type="line"/>
      <point x="282" y="949" type="line"/>
      <point x="375" y="1061"/>
      <point x="507" y="1124"/>
      <point x="674" y="1124" type="curve" smooth="yes"/>
      <point x="903" y="1124"/>
      <point x="1007" y="952"/>
      <point x="1007" y="664" type="curve" smooth="yes"/>
      <point x="1007" y="0" type="line"/>
      <point x="839" y="0" type="line"/>
      <point x="839" y="617" type="line" smooth="yes"/>
      <point x="839" y="865"/>
      <point x="806" y="980"/>
      <point x="619" y="980" type="curve" smooth="yes"/>
      <point x="448" y="980"/>
      <point x="309" y="852"/>
      <point x="282" y="748" type="curve"/>
    </contour>
  </outline>
</glyph>
<glyph name="i" format="1">
  <advance width="466"/>
  <unicode hex="0069"/>
  <outline>
    <contour>
      <point x="327" y="1098" type="line"/>
      <point x="327" y="0" type="line"/>
      <point x="159" y="0" type="line"/>
      <point x="159" y="1098" type="line"/>
    </contour>
    <contour>
      <point x="327" y="1496" type="line"/>
      <point x="327" y="1298" type="line"/>
      <point x="159" y="1298" type="line"/>
      <point x="159" y="1496" type="line"/>
    </contour>
  </outline>
</glyph>
<glyph name="j" format="1">
  <advance width="445"/>
  <unicode hex="006A"/>
  <outline>
    <contour>
      <point x="330" y="1098" type="line"/>
      <point x="330" y="-139" type="line" smooth="yes"/>
      <point x="330" y="-407"/>
      <point x="270" y="-502"/>
      <point x="-3" y="-502" type="curve" smooth="yes"/>
      <point x="-55" y="-502" type="line"/>
      <point x="-77" y="-351" type="line"/>
      <point x="-25" y="-351" type="line" smooth="yes"/>
      <point x="157" y="-351"/>
      <point x="162" y="-286"/>
      <point x="162" y="-121" type="curve" smooth="yes"/>
      <point x="162" y="1098" type="line"/>
    </contour>
    <contour>
      <point x="330" y="1496" type="line"/>
      <point x="330" y="1298" type="line"/>
      <point x="162" y="1298" type="line"/>
      <point x="162" y="1496" type="line"/>
    </contour>
  </outline>
</glyph>
<glyph name="k" format="1">
  <advance width="1007"/>
  <unicode hex="006B"/>
  <outline>
    <contour>
      <point x="115" y="1490" type="line"/>
      <point x="283" y="1510" type="line"/>
      <point x="283" y="632" type="line"/>
      <point x="772" y="1098" type="line"/>
      <point x="999" y="1098" type="line"/>
      <point x="530" y="642" type="line"/>
      <point x="1032" y="0" type="line"/>
      <point x="817" y="0" type="line"/>
      <point x="402" y="563" type="line"/>
      <point x="283" y="461" type="line"/>
      <point x="283" y="0" type="line"/>
      <point x="115" y="0" type="line"/>
    </contour>
  </outline>
</glyph>
<glyph name="m" format="1">
  <advance width="1773"/>
  <unicode hex="006D"/>
  <outline>
    <contour>
      <point x="114" y="0" type="line"/>
      <point x="114" y="820" type="line" smooth="yes"/>
      <point x="114" y="913"/>
      <point x="111" y="1066"/>
      <point x="111" y="1098" type="curve"/>
      <point x="255" y="1098" type="line"/>
      <point x="271" y="934" type="line"/>
      <point x="368" y="1063"/>
      <point x="502" y="1122"/>
      <point x="641" y="1122" type="curve" smooth="yes"/>
      <point x="794" y="1122"/>
      <point x="899" y="1066"/>
      <point x="950" y="919" type="curve"/>
      <point x="1047" y="1067"/>
      <point x="1175" y="1122"/>
      <point x="1330" y="1122" type="curve" smooth="yes"/>
      <point x="1578" y="1122"/>
      <point x="1668" y="952"/>
      <point x="1668" y="695" type="curve" smooth="yes"/>
      <point x="1668" y="0" type="line"/>
      <point x="1500" y="0" type="line"/>
      <point x="1500" y="571" type="line" smooth="yes"/>
      <point x="1500" y="818"/>
      <point x="1490" y="977"/>
      <point x="1303" y="977" type="curve" smooth="yes"/>
      <point x="1164" y="977"/>
      <point x="1044" y="877"/>
      <point x="993" y="729" type="curve"/>
      <point x="993" y="0" type="line"/>
      <point x="825" y="0" type="line"/>
      <point x="825" y="606" type="line" smooth="yes"/>
      <point x="825" y="830"/>
      <point x="787" y="977"/>
      <point x="621" y="977" type="curve" smooth="yes"/>
      <point x="450" y="977"/>
      <point x="318" y="861"/>
      <point x="282" y="749" type="curve"/>
      <point x="282" y="0" type="line"/>
    </contour>
  </outline>
</glyph>
<glyph name="n" format="1">
  <advance width="1112"/>
  <unicode hex="006E"/>
  <outline>
    <contour>
      <point x="661" y="1124" type="curve" smooth="yes"/>
      <point x="902" y="1124"/>
      <point x="1007" y="965"/>
      <point x="1007" y="657" type="curve" smooth="yes"/>
      <point x="1007" y="0" type="line"/>
      <point x="839" y="0" type="line"/>
      <point x="839" y="551" type="line" smooth="yes"/>
      <point x="839" y="836"/>
      <point x="828" y="980"/>
      <point x="625" y="980" type="curve" smooth="yes"/>
      <point x="441" y="980"/>
      <point x="309" y="849"/>
      <point x="282" y="750" type="curve"/>
      <point x="282" y="0" type="line"/>
      <point x="114" y="0" type="line"/>
      <point x="114" y="831" type="line"/>
      <point x="111" y="1098" type="line"/>
      <point x="255" y="1098" type="line"/>
      <point x="271" y="935" type="line"/>
      <point x="356" y="1052"/>
      <point x="509" y="1124"/>
    </contour>
  </outline>
</glyph>
<glyph name="o" format="1">
  <advance width="1165"/>
  <unicode hex="006F"/>
  <outline>
    <contour>
      <point x="1095" y="549" type="curve" smooth="yes"/>
      <point x="1095" y="245"/>
      <point x="916" y="-25"/>
      <point x="587" y="-25" type="curve" smooth="yes"/>
      <point x="255" y="-25"/>
      <point x="70" y="232"/>
      <point x="70" y="547" type="curve" smooth="yes"/>
      <point x="70" y="861"/>
      <point x="258" y="1124"/>
      <point x="590" y="1124" type="curve" smooth="yes"/>
      <point x="926" y="1124"/>
      <point x="1095" y="865"/>
    </contour>
    <contour>
      <point x="921" y="547" type="curve" smooth="yes"/>
      <point x="921" y="780"/>
      <point x="834" y="986"/>
      <point x="587" y="986" type="curve" smooth="yes"/>
      <point x="351" y="986"/>
      <point x="243" y="768"/>
      <point x="243" y="544" type="curve" smooth="yes"/>
      <point x="243" y="323"/>
      <point x="350" y="113"/>
      <point x="590" y="113" type="curve" smooth="yes"/>
      <point x="827" y="113"/>
      <point x="921" y="323"/>
    </contour>
  </outline>
</glyph>
<glyph name="q" format="1">
  <advance width="1168"/>
  <unicode hex="0071"/>
  <outline>
    <contour>
      <point x="539" y="-25" type="curve" smooth="yes"/>
      <point x="234" y="-25"/>
      <point x="77" y="244"/>
      <point x="77" y="538" type="curve" smooth="yes"/>
      <point x="77" y="855"/>
      <point x="230" y="1124"/>
      <point x="551" y="1124" type="curve" smooth="yes"/>
      <point x="704" y="1124"/>
      <point x="815" y="1049"/>
      <point x="886" y="938" type="curve"/>
      <point x="886" y="1098" type="line"/>
      <point x="1051" y="1098" type="line"/>
      <point x="1051" y="-439" type="line"/>
      <point x="883" y="-459" type="line"/>
      <point x="883" y="171" type="line"/>
      <point x="814" y="50"/>
      <point x="692" y="-25"/>
    </contour>
    <contour>
      <point x="886" y="551" type="curve" smooth="yes"/>
      <point x="886" y="783"/>
      <point x="790" y="976"/>
      <point x="558" y="976" type="curve" smooth="yes"/>
      <point x="322" y="976"/>
      <point x="250" y="748"/>
      <point x="250" y="551" type="curve" smooth="yes"/>
      <point x="250" y="346"/>
      <point x="323" y="123"/>
      <point x="559" y="123" type="curve" smooth="yes"/>
      <point x="793" y="123"/>
      <point x="886" y="317"/>
    </contour>
  </outline>
</glyph>
<glyph name="u" format="1">
  <advance width="1100"/>
  <unicode hex="0075"/>
  <outline>
    <contour>
      <point x="105" y="367" type="curve" smooth="yes"/>
      <point x="105" y="1098" type="line"/>
      <point x="273" y="1098" type="line"/>
      <point x="273" y="365" type="line" smooth="yes"/>
      <point x="273" y="168"/>
      <point x="391" y="114"/>
      <point x="551" y="114" type="curve" smooth="yes"/>
      <point x="709" y="114"/>
      <point x="826" y="170"/>
      <point x="826" y="365" type="curve" smooth="yes"/>
      <point x="826" y="1098" type="line"/>
      <point x="994" y="1098" type="line"/>
      <point x="994" y="367" type="line" smooth="yes"/>
      <point x="994" y="79"/>
      <point x="785" y="-24"/>
      <point x="551" y="-24" type="curve" smooth="yes"/>
      <point x="317" y="-24"/>
      <point x="105" y="81"/>
    </contour>
  </outline>
</glyph>
<glyph name="v" format="1">
  <advance width="1036"/>
  <unicode hex="0076"/>
  <outline>
    <contour>
      <point x="433" y="0" type="line"/>
      <point x="-1" y="1098" type="line"/>
      <point x="179" y="1098" type="line"/>
      <point x="525" y="184" type="line"/>
      <point x="852" y="1098" type="line"/>
      <point x="1031" y="1098" type="line"/>
      <point x="602" y="0" type="line"/>
    </contour>
  </outline>
</glyph>
<glyph name="w" format="1">
  <advance width="1619"/>
  <unicode hex="0077"/>
  <outline>
    <contour>
      <point x="15" y="1098" type="line"/>
      <point x="188" y="1098" type="line"/>
      <point x="433" y="223" type="line"/>
      <point x="722" y="1098" type="line"/>
      <point x="919" y="1098" type="line"/>
      <point x="1199" y="227" type="line"/>
      <point x="1434" y="1098" type="line"/>
      <point x="1604" y="1098" type="line"/>
      <point x="1275" y="0" type="line"/>
      <point x="1109" y="0" type="line"/>
      <point x="818" y="928" type="line"/>
      <point x="511" y="0" type="line"/>
      <point x="342" y="0" type="line"/>
    </contour>
  </outline>
</glyph>
<glyph name="z" format="1">
  <advance width="866"/>
  <unicode hex="007A"/>
  <outline>
    <contour>
      <point x="84" y="139" type="line"/>
      <point x="609" y="964" type="line"/>
      <point x="78" y="964" type="line"/>
      <point x="78" y="1098" type="line"/>
      <point x="801" y="1098" type="line"/>
      <point x="801" y="964" type="line"/>
      <point x="271" y="136" type="line"/>
      <point x="821" y="136" type="line"/>
      <point x="821" y="0" type="line"/>
      <point x="84" y="0" type="line"/>
    </contour>
  </outline>
</glyph>
<glyph name="braceright" format="1">
  <advance width="700"/>
  <unicode hex="007D"/>
  <outline>
    <contour>
      <point x="411" y="689" type="curve"/>
      <point x="291" y="748"/>
      <point x="266" y="892"/>
      <point x="266" y="988" type="curve" smooth="yes"/>
      <point x="266" y="1223" type="line" smooth="yes"/>
      <point x="266" y="1424"/>
      <point x="261" y="1479"/>
      <point x="118" y="1479" type="curve"/>
      <point x="118" y="1616" type="line"/>
      <point x="334" y="1616"/>
      <point x="427" y="1534"/>
      <point x="427" y="1326" type="curve" smooth="yes"/>
      <point x="427" y="1043" type="line" smooth="yes"/>
      <point x="427" y="913"/>
      <point x="434" y="764"/>
      <point x="551" y="764" type="curve" smooth="yes"/>
      <point x="610" y="764" type="line"/>
      <point x="610" y="614" type="line"/>
      <point x="551" y="614" type="line" smooth="yes"/>
      <point x="434" y="614"/>
      <point x="427" y="465"/>
      <point x="427" y="335" type="curve" smooth="yes"/>
      <point x="427" y="53" type="line" smooth="yes"/>
      <point x="427" y="-155"/>
      <point x="334" y="-238"/>
      <point x="118" y="-238" type="curve"/>
      <point x="118" y="-101" type="line"/>
      <point x="261" y="-101"/>
      <point x="266" y="-45"/>
      <point x="266" y="156" type="curve" smooth="yes"/>
      <point x="266" y="390" type="line" smooth="yes"/>
      <point x="266" y="486"/>
      <point x="291" y="630"/>
    </contour>
  </outline>
</glyph>
<glyph name="currency" format="1">
  <advance width="1132"/>
  <unicode hex="00A4"/>
  <outline>
    <contour>
      <point x="275" y="1064" type="line"/>
      <point x="352" y="1134"/>
      <point x="455" y="1176"/>
      <point x="567" y="1176" type="curve" smooth="yes"/>
      <point x="681" y="1176"/>
      <point x="784" y="1133"/>
      <point x="862" y="1061" type="curve"/>
      <point x="1099" y="1280" type="line"/>
      <point x="1144" y="1224" type="line"/>
      <point x="910" y="1008" type="line"/>
      <point x="967" y="934"/>
      <point x="1002" y="841"/>
      <point x="1002" y="741" type="curve" smooth="yes"/>
      <point x="1002" y="641"/>
      <point x="968" y="549"/>
      <point x="911" y="475" type="curve"/>
      <point x="1144" y="259" type="line"/>
      <point x="1099" y="203" type="line"/>
      <point x="862" y="422" type="line"/>
      <point x="784" y="350"/>
      <point x="681" y="306"/>
      <point x="567" y="306" type="curve" smooth="yes"/>
      <point x="454" y="306"/>
      <point x="351" y="349"/>
      <point x="274" y="419" type="curve"/>
      <point x="41" y="203" type="line"/>
      <point x="-12" y="254" type="line"/>
      <point x="225" y="472" type="line"/>
      <point x="167" y="546"/>
      <point x="132" y="640"/>
      <point x="132" y="741" type="curve" smooth="yes"/>
      <point x="132" y="843"/>
      <point x="167" y="936"/>
      <point x="225" y="1010" type="curve"/>
      <point x="-12" y="1229" type="line"/>
      <point x="41" y="1280" type="line"/>
    </contour>
    <contour>
      <point x="222" y="741" type="curve" smooth="yes"/>
      <point x="222" y="551"/>
      <point x="377" y="396"/>
      <point x="567" y="396" type="curve" smooth="yes"/>
      <point x="757" y="396"/>
      <point x="912" y="551"/>
      <point x="912" y="741" type="curve" smooth="yes"/>
      <point x="912" y="931"/>
      <point x="757" y="1086"/>
      <point x="567" y="1086" type="curve" smooth="yes"/>
      <point x="377" y="1086"/>
      <point x="222" y="931"/>
    </contour>
  </outline>
</glyph>
<glyph name="yen" format="1">
  <advance width="1099"/>
  <unicode hex="00A5"/>
  <outline>
    <contour>
      <point x="625" y="330" type="line"/>
      <point x="625" y="0" type="line"/>
      <point x="473" y="0" type="line"/>
      <point x="473" y="330" type="line"/>
      <point x="82" y="330" type="line"/>
      <point x="82" y="452" type="line"/>
      <point x="472" y="452" type="line"/>
      <point x="472" y="646" type="line"/>
      <point x="85" y="646" type="line"/>
      <point x="85" y="767" type="line"/>
      <point x="436" y="767" type="line"/>
      <point x="19" y="1496" type="line"/>
      <point x="198" y="1496" type="line"/>
      <point x="550" y="875" type="line"/>
      <point x="910" y="1496" type="line"/>
      <point x="1080" y="1496" type="line"/>
      <point x="650" y="767" type="line"/>
      <point x="999" y="767" type="line"/>
      <point x="999" y="646" type="line"/>
      <point x="624" y="646" type="line"/>
      <point x="624" y="452" type="line"/>
      <point x="1002" y="452" type="line"/>
      <point x="1002" y="330" type="line"/>
    </contour>
  </outline>
</glyph>
<glyph name="section" format="1">
  <advance width="978"/>
  <unicode hex="00A7"/>
  <outline>
    <contour>
      <point x="773" y="1563" type="curve"/>
      <point x="774" y="1405" type="line"/>
      <point x="718" y="1437"/>
      <point x="621" y="1460"/>
      <point x="556" y="1460" type="curve" smooth="yes"/>
      <point x="429" y="1460"/>
      <point x="331" y="1418"/>
      <point x="331" y="1314" type="curve" smooth="yes"/>
      <point x="331" y="1228"/>
      <point x="383" y="1177"/>
      <point x="558" y="1100" type="curve"/>
      <point x="718" y="1025"/>
      <point x="841" y="946"/>
      <point x="841" y="794" type="curve" smooth="yes"/>
      <point x="841" y="676"/>
      <point x="763" y="580"/>
      <point x="676" y="517" type="curve"/>
      <point x="760" y="464"/>
      <point x="822" y="398"/>
      <point x="822" y="272" type="curve" smooth="yes"/>
      <point x="822" y="64"/>
      <point x="645" y="-50"/>
      <point x="424" y="-50" type="curve" smooth="yes"/>
      <point x="329" y="-50"/>
      <point x="243" y="-35"/>
      <point x="167" y="4" type="curve"/>
      <point x="167" y="166" type="line"/>
      <point x="252" y="119"/>
      <point x="336" y="95"/>
      <point x="419" y="95" type="curve" smooth="yes"/>
      <point x="575" y="95"/>
      <point x="667" y="169"/>
      <point x="667" y="262" type="curve" smooth="yes"/>
      <point x="667" y="357"/>
      <point x="588" y="388"/>
      <point x="448" y="450" type="curve"/>
      <point x="360" y="490" type="line"/>
      <point x="223" y="557"/>
      <point x="144" y="648"/>
      <point x="144" y="785" type="curve" smooth="yes"/>
      <point x="144" y="909"/>
      <point x="220" y="997"/>
      <point x="311" y="1050" type="curve"/>
      <point x="225" y="1115"/>
      <point x="176" y="1184"/>
      <point x="176" y="1310" type="curve" smooth="yes"/>
      <point x="176" y="1509"/>
      <point x="330" y="1608"/>
      <point x="550" y="1608" type="curve" smooth="yes"/>
      <point x="639" y="1608"/>
      <point x="702" y="1591"/>
    </contour>
    <contour>
      <point x="536" y="589" type="curve"/>
      <point x="603" y="632"/>
      <point x="685" y="693"/>
      <point x="685" y="778" type="curve" smooth="yes"/>
      <point x="685" y="903"/>
      <point x="524" y="935"/>
      <point x="436" y="980" type="curve"/>
      <point x="368" y="938"/>
      <point x="300" y="884"/>
      <point x="300" y="798" type="curve" smooth="yes"/>
      <point x="300" y="692"/>
      <point x="395" y="648"/>
    </contour>
  </outline>
</glyph>
<glyph name="logicalnot" format="1">
  <advance width="1280"/>
  <unicode hex="00AC"/>
  <outline>
    <contour>
      <point x="1136" y="256" type="line"/>
      <point x="1003" y="256" type="line"/>
      <point x="1003" y="709" type="line"/>
      <point x="115" y="709" type="line"/>
      <point x="115" y="860" type="line"/>
      <point x="1136" y="860" type="line"/>
    </contour>
  </outline>
</glyph>
<glyph name="registered" format="1">
  <advance width="1824"/>
  <unicode hex="00AE"/>
  <outline>
    <contour>
      <point x="1701" y="781" type="curve" smooth="yes"/>
      <point x="1701" y="242"/>
      <point x="1317" y="-26"/>
      <point x="902" y="-26" type="curve" smooth="yes"/>
      <point x="510" y="-26"/>
      <point x="117" y="242"/>
      <point x="117" y="781" type="curve" smooth="yes"/>
      <point x="117" y="1318"/>
      <point x="505" y="1586"/>
      <point x="897" y="1586" type="curve" smooth="yes"/>
      <point x="1312" y="1586"/>
      <point x="1701" y="1316"/>
    </contour>
    <contour>
      <point x="902" y="67" type="curve" smooth="yes"/>
      <point x="1353" y="67"/>
      <point x="1588" y="387"/>
      <point x="1588" y="778" type="curve" smooth="yes"/>
      <point x="1588" y="1168"/>
      <point x="1350" y="1493"/>
      <point x="897" y="1493" type="curve" smooth="yes"/>
      <point x="468" y="1493"/>
      <point x="230" y="1169"/>
      <point x="230" y="783" type="curve" smooth="yes"/>
      <point x="230" y="389"/>
      <point x="469" y="67"/>
    </contour>
    <contour>
      <point x="857" y="843" type="line" smooth="yes"/>
      <point x="1041" y="843"/>
      <point x="1141" y="871"/>
      <point x="1141" y="999" type="curve" smooth="yes"/>
      <point x="1141" y="1131"/>
      <point x="1055" y="1149"/>
      <point x="847" y="1149" type="curve" smooth="yes"/>
      <point x="731" y="1149" type="line"/>
      <point x="731" y="843" type="line"/>
    </contour>
    <contour>
      <point x="914" y="716" type="curve"/>
      <point x="731" y="716" type="line"/>
      <point x="731" y="301" type="line"/>
      <point x="599" y="301" type="line"/>
      <point x="599" y="1277" type="line"/>
      <point x="857" y="1277" type="line" smooth="yes"/>
      <point x="1158" y="1277"/>
      <point x="1300" y="1184"/>
      <point x="1300" y="1007" type="curve" smooth="yes"/>
      <point x="1300" y="877"/>
      <point x="1237" y="759"/>
      <point x="1040" y="735" type="curve"/>
      <point x="1132" y="662"/>
      <point x="1181" y="531"/>
      <point x="1320" y="301" type="curve"/>
      <point x="1171" y="301" type="line"/>
      <point x="1046" y="525" type="line" smooth="yes"/>
      <point x="995" y="618"/>
      <point x="961" y="680"/>
    </contour>
  </outline>
</glyph>
<glyph name="degree" format="1">
  <advance width="816"/>
  <unicode hex="00B0"/>
  <outline>
    <contour>
      <point x="409" y="1430" type="curve" smooth="yes"/>
      <point x="313" y="1430"/>
      <point x="228" y="1347"/>
      <point x="228" y="1239" type="curve" smooth="yes"/>
      <point x="228" y="1131"/>
      <point x="310" y="1046"/>
      <point x="409" y="1046" type="curve" smooth="yes"/>
      <point x="508" y="1046"/>
      <point x="591" y="1131"/>
      <point x="591" y="1239" type="curve" smooth="yes"/>
      <point x="591" y="1347"/>
      <point x="506" y="1430"/>
    </contour>
    <contour>
      <point x="409" y="919" type="curve" smooth="yes"/>
      <point x="241" y="919"/>
      <point x="98" y="1065"/>
      <point x="98" y="1239" type="curve" smooth="yes"/>
      <point x="98" y="1412"/>
      <point x="241" y="1555"/>
      <point x="409" y="1555" type="curve" smooth="yes"/>
      <point x="579" y="1555"/>
      <point x="720" y="1412"/>
      <point x="720" y="1239" type="curve" smooth="yes"/>
      <point x="720" y="1065"/>
      <point x="577" y="919"/>
    </contour>
  </outline>
</glyph>
<glyph name="plusminus" format="1">
  <advance width="1234"/>
  <unicode hex="00B1"/>
  <outline>
    <contour>
      <point x="1111" y="0" type="line"/>
      <point x="133" y="0" type="line"/>
      <point x="133" y="148" type="line"/>
      <point x="1111" y="148" type="line"/>
    </contour>
    <contour>
      <point x="133" y="789" type="line"/>
      <point x="550" y="789" type="line"/>
      <point x="550" y="1193" type="line"/>
      <point x="683" y="1193" type="line"/>
      <point x="683" y="789" type="line"/>
      <point x="1108" y="789" type="line"/>
      <point x="1108" y="642" type="line"/>
      <point x="687" y="642" type="line"/>
      <point x="687" y="240" type="line"/>
      <point x="553" y="240" type="line"/>
      <point x="553" y="642" type="line"/>
      <point x="133" y="642" type="line"/>
    </contour>
  </outline>
</glyph>
<glyph name="acute" format="1">
  <advance width="639"/>
  <unicode hex="00B4"/>
  <outline>
    <contour>
      <point x="567" y="1638" type="line"/>
      <point x="242" y="1250" type="line"/>
      <point x="128" y="1250" type="line"/>
      <point x="314" y="1638" type="line"/>
    </contour>
  </outline>
</glyph>
<glyph name="middot" format="1">
  <advance width="468"/>
  <unicode hex="00B7"/>
  <outline>
    <contour>
      <point x="235" y="793" type="curve" smooth="yes"/>
      <point x="324" y="793"/>
      <point x="368" y="727"/>
      <point x="368" y="661" type="curve" smooth="yes"/>
      <point x="368" y="595"/>
      <point x="324" y="529"/>
      <point x="235" y="529" type="curve" smooth="yes"/>
      <point x="147" y="529"/>
      <point x="102" y="595"/>
      <point x="102" y="661" type="curve" smooth="yes"/>
      <point x="102" y="727"/>
      <point x="147" y="793"/>
    </contour>
  </outline>
</glyph>
<glyph name="uni00B9" format="1">
  <advance width="601"/>
  <unicode hex="00B9"/>
  <outline>
    <contour>
      <point x="122" y="1334" type="curve"/>
      <point x="122" y="1436" type="line"/>
      <point x="183" y="1467"/>
      <point x="231" y="1499"/>
      <point x="271" y="1539" type="curve"/>
      <point x="368" y="1538" type="line"/>
      <point x="368" y="746" type="line"/>
      <point x="492" y="746" type="line"/>
      <point x="492" y="650" type="line"/>
      <point x="135" y="650" type="line"/>
      <point x="135" y="746" type="line"/>
      <point x="253" y="746" type="line"/>
      <point x="253" y="1409" type="line"/>
      <point x="215" y="1384"/>
      <point x="166" y="1357"/>
    </contour>
  </outline>
</glyph>
<glyph name="onequarter" format="1">
  <advance width="1609"/>
  <unicode hex="00BC"/>
  <outline>
    <contour>
      <point x="1420" y="40" type="line"/>
      <point x="1313" y="40" type="line"/>
      <point x="1313" y="240" type="line"/>
      <point x="923" y="240" type="line"/>
      <point x="923" y="339" type="line"/>
      <point x="1302" y="899" type="line"/>
      <point x="1422" y="899" type="line"/>
      <point x="1422" y="358" type="line"/>
      <point x="1516" y="358" type="line"/>
      <point x="1526" y="240" type="line"/>
      <point x="1420" y="240" type="line"/>
    </contour>
    <contour>
      <point x="1066" y="358" type="line"/>
      <point x="1312" y="358" type="line"/>
      <point x="1312" y="608" type="line" smooth="yes"/>
      <point x="1312" y="660"/>
      <point x="1312" y="688"/>
      <point x="1313" y="716" type="curve"/>
    </contour>
    <contour>
      <point x="122" y="1334" type="curve"/>
      <point x="122" y="1436" type="line"/>
      <point x="183" y="1467"/>
      <point x="231" y="1499"/>
      <point x="271" y="1539" type="curve"/>
      <point x="368" y="1538" type="line"/>
      <point x="368" y="746" type="line"/>
      <point x="492" y="746" type="line"/>
      <point x="492" y="650" type="line"/>
      <point x="135" y="650" type="line"/>
      <point x="135" y="746" type="line"/>
      <point x="253" y="746" type="line"/>
      <point x="253" y="1409" type="line"/>
      <point x="215" y="1384"/>
      <point x="166" y="1357"/>
    </contour>
    <contour>
      <point x="1165" y="1547" type="line"/>
      <point x="1300" y="1547" type="line"/>
      <point x="379" y="0" type="line"/>
      <point x="245" y="0" type="line"/>
    </contour>
  </outline>
</glyph>
<glyph name="threequarters" format="1">
  <advance width="1630"/>
  <unicode hex="00BE"/>
  <outline>
    <contour>
      <point x="166" y="1339" type="curve"/>
      <point x="116" y="1442" type="line"/>
      <point x="170" y="1506"/>
      <point x="253" y="1553"/>
      <point x="338" y="1553" type="curve" smooth="yes"/>
      <point x="462" y="1553"/>
      <point x="600" y="1461"/>
      <point x="600" y="1305" type="curve" smooth="yes"/>
      <point x="600" y="1221"/>
      <point x="559" y="1152"/>
      <point x="487" y="1112" type="curve"/>
      <point x="571" y="1072"/>
      <point x="620" y="1003"/>
      <point x="620" y="899" type="curve" smooth="yes"/>
      <point x="620" y="733"/>
      <point x="478" y="631"/>
      <point x="333" y="631" type="curve" smooth="yes"/>
      <point x="249" y="631"/>
      <point x="173" y="667"/>
      <point x="116" y="735" type="curve"/>
      <point x="168" y="838" type="line"/>
      <point x="219" y="782"/>
      <point x="272" y="753"/>
      <point x="328" y="753" type="curve" smooth="yes"/>
      <point x="412" y="753"/>
      <point x="484" y="811"/>
      <point x="484" y="903" type="curve" smooth="yes"/>
      <point x="484" y="1009"/>
      <point x="410" y="1046"/>
      <point x="293" y="1046" type="curve" smooth="yes"/>
      <point x="244" y="1046" type="line"/>
      <point x="244" y="1174" type="line"/>
      <point x="288" y="1174" type="line" smooth="yes"/>
      <point x="389" y="1174"/>
      <point x="462" y="1206"/>
      <point x="462" y="1303" type="curve" smooth="yes"/>
      <point x="462" y="1387"/>
      <point x="410" y="1424"/>
      <point x="337" y="1424" type="curve" smooth="yes"/>
      <point x="273" y="1424"/>
      <point x="217" y="1390"/>
    </contour>
    <contour>
      <point x="1249" y="1547" type="line"/>
      <point x="1393" y="1547" type="line"/>
      <point x="465" y="0" type="line"/>
      <point x="331" y="0" type="line"/>
    </contour>
    <contour>
      <point x="1441" y="44" type="line"/>
      <point x="1334" y="44" type="line"/>
      <point x="1334" y="245" type="line"/>
      <point x="942" y="245" type="line"/>
      <point x="942" y="343" type="line"/>
      <point x="1321" y="903" type="line"/>
      <point x="1442" y="903" type="line"/>
      <point x="1442" y="361" type="line"/>
      <point x="1538" y="361" type="line"/>
      <point x="1546" y="245" type="line"/>
      <point x="1441" y="245" type="line"/>
    </contour>
    <contour>
      <point x="1085" y="361" type="line"/>
      <point x="1331" y="361" type="line"/>
      <point x="1331" y="608"/>
      <point x="1331" y="664"/>
      <point x="1334" y="721" type="curve"/>
    </contour>
  </outline>
</glyph>
<glyph name="questiondown" format="1">
  <advance width="865"/>
  <unicode hex="00BF"/>
  <outline>
    <contour>
      <point x="434" y="1077" type="curve"/>
      <point x="521" y="1077" type="line"/>
      <point x="521" y="844"/>
      <point x="236" y="523"/>
      <point x="236" y="326" type="curve"/>
      <point x="238" y="194"/>
      <point x="328" y="139"/>
      <point x="461" y="139" type="curve" smooth="yes"/>
      <point x="581" y="139"/>
      <point x="672" y="190"/>
      <point x="720" y="220" type="curve"/>
      <point x="765" y="85" type="line"/>
      <point x="675" y="14"/>
      <point x="545" y="-12"/>
      <point x="434" y="-12" type="curve" smooth="yes"/>
      <point x="224" y="-12"/>
      <point x="73" y="104"/>
      <point x="73" y="312" type="curve" smooth="yes"/>
      <point x="73" y="585"/>
      <point x="284" y="742"/>
    </contour>
    <contour>
      <point x="596" y="1392" type="curve" smooth="yes"/>
      <point x="596" y="1326"/>
      <point x="551" y="1260"/>
      <point x="463" y="1260" type="curve" smooth="yes"/>
      <point x="374" y="1260"/>
      <point x="330" y="1326"/>
      <point x="330" y="1392" type="curve" smooth="yes"/>
      <point x="330" y="1458"/>
      <point x="374" y="1524"/>
      <point x="463" y="1524" type="curve" smooth="yes"/>
      <point x="551" y="1524"/>
      <point x="596" y="1458"/>
    </contour>
  </outline>
</glyph>
<glyph name="AE" format="1">
  <advance width="2092"/>
  <unicode hex="00C6"/>
  <outline>
    <contour>
      <point x="1069" y="1409" type="line"/>
      <point x="1017" y="1409" type="line"/>
      <point x="564" y="589" type="line"/>
      <point x="1130" y="589" type="line"/>
    </contour>
    <contour>
      <point x="85" y="0" type="line"/>
      <point x="905" y="1568" type="line"/>
      <point x="1946" y="1568" type="line"/>
      <point x="1946" y="1409" type="line"/>
      <point x="1241" y="1409" type="line"/>
      <point x="1280" y="882" type="line"/>
      <point x="1911" y="882" type="line"/>
      <point x="1911" y="724" type="line"/>
      <point x="1300" y="724" type="line"/>
      <point x="1342" y="158" type="line"/>
      <point x="1966" y="158" type="line"/>
      <point x="1966" y="0" type="line"/>
      <point x="1183" y="0" type="line"/>
      <point x="1152" y="427" type="line"/>
      <point x="480" y="427" type="line"/>
      <point x="258" y="0" type="line"/>
    </contour>
  </outline>
</glyph>
<glyph name="multiply" format="1">
  <advance width="993"/>
  <unicode hex="00D7"/>
  <outline>
    <contour>
      <point x="876" y="278" type="line"/>
      <point x="768" y="181" type="line"/>
      <point x="496" y="494" type="line"/>
      <point x="224" y="181" type="line"/>
      <point x="116" y="278" type="line"/>
      <point x="401" y="604" type="line"/>
      <point x="116" y="932" type="line"/>
      <point x="222" y="1027" type="line"/>
      <point x="496" y="713" type="line"/>
      <point x="770" y="1027" type="line"/>
      <point x="876" y="932" type="line"/>
      <point x="591" y="604" type="line"/>
    </contour>
  </outline>
</glyph>
<glyph name="Oslash" format="1">
  <advance width="1657"/>
  <unicode hex="00D8"/>
  <outline>
    <contour>
      <point x="1353" y="1610" type="curve"/>
      <point x="1460" y="1538" type="line"/>
      <point x="1460" y="1538"/>
      <point x="341" y="-118"/>
      <point x="341" y="-118" type="curve"/>
      <point x="240" y="-51" type="line"/>
      <point x="240" y="-51"/>
      <point x="1353" y="1610"/>
    </contour>
    <component base="O"/>
  </outline>
</glyph>
<glyph name="germandbls" format="1">
  <advance width="1222"/>
  <unicode hex="00DF"/>
  <outline>
    <contour>
      <point x="771" y="148" type="line" smooth="yes"/>
      <point x="902" y="148"/>
      <point x="977" y="224"/>
      <point x="977" y="343" type="curve" smooth="yes"/>
      <point x="977" y="518"/>
      <point x="722" y="617"/>
      <point x="591" y="705" type="curve" smooth="yes"/>
      <point x="544" y="737"/>
      <point x="509" y="775"/>
      <point x="509" y="822" type="curve" smooth="yes"/>
      <point x="509" y="857"/>
      <point x="527" y="895"/>
      <point x="574" y="934" type="curve" smooth="yes"/>
      <point x="673" y="1015"/>
      <point x="799" y="1045"/>
      <point x="799" y="1182" type="curve" smooth="yes"/>
      <point x="799" y="1303"/>
      <point x="691" y="1373"/>
      <point x="568" y="1373" type="curve" smooth="yes"/>
      <point x="364" y="1373"/>
      <point x="286" y="1246"/>
      <point x="286" y="1056" type="curve" smooth="yes"/>
      <point x="286" y="0" type="line"/>
      <point x="118" y="0" type="line"/>
      <point x="118" y="1046" type="line" smooth="yes"/>
      <point x="118" y="1343"/>
      <point x="260" y="1525"/>
      <point x="568" y="1525" type="curve" smooth="yes"/>
      <point x="818" y="1525"/>
      <point x="988" y="1398"/>
      <point x="988" y="1182" type="curve" smooth="yes"/>
      <point x="988" y="992"/>
      <point x="835" y="933"/>
      <point x="683" y="838" type="curve"/>
      <point x="870" y="704"/>
      <point x="1166" y="605"/>
      <point x="1166" y="348" type="curve" smooth="yes"/>
      <point x="1166" y="94"/>
      <point x="1002" y="0"/>
      <point x="786" y="0" type="curve" smooth="yes"/>
      <point x="443" y="0" type="line"/>
      <point x="459" y="148" type="line"/>
    </contour>
  </outline>
</glyph>
<glyph name="oslash" format="1">
  <advance width="1179"/>
  <unicode hex="00F8"/>
  <outline>
    <contour>
      <point x="894" y="1367" type="line"/>
      <point x="971" y="1336" type="line"/>
      <point x="854" y="1060" type="line"/>
      <point x="1019" y="964"/>
      <point x="1102" y="770"/>
      <point x="1102" y="549" type="curve" smooth="yes"/>
      <point x="1102" y="245"/>
      <point x="923" y="-25"/>
      <point x="594" y="-25" type="curve" smooth="yes"/>
      <point x="525" y="-25"/>
      <point x="462" y="-14"/>
      <point x="406" y="7" type="curve"/>
      <point x="286" y="-275" type="line"/>
      <point x="215" y="-237" type="line"/>
      <point x="333" y="41" type="line"/>
      <point x="167" y="137"/>
      <point x="77" y="328"/>
      <point x="77" y="547" type="curve" smooth="yes"/>
      <point x="77" y="861"/>
      <point x="265" y="1124"/>
      <point x="597" y="1124" type="curve" smooth="yes"/>
      <point x="664" y="1124"/>
      <point x="725" y="1113"/>
      <point x="779" y="1094" type="curve"/>
    </contour>
    <contour>
      <point x="462" y="139" type="line"/>
      <point x="501" y="122"/>
      <point x="546" y="113"/>
      <point x="597" y="113" type="curve" smooth="yes"/>
      <point x="834" y="113"/>
      <point x="928" y="323"/>
      <point x="928" y="547" type="curve" smooth="yes"/>
      <point x="928" y="700"/>
      <point x="890" y="842"/>
      <point x="794" y="921" type="curve"/>
    </contour>
    <contour>
      <point x="392" y="182" type="curve"/>
      <point x="723" y="963" type="line"/>
      <point x="686" y="978"/>
      <point x="643" y="986"/>
      <point x="594" y="986" type="curve" smooth="yes"/>
      <point x="358" y="986"/>
      <point x="250" y="768"/>
      <point x="250" y="544" type="curve" smooth="yes"/>
      <point x="250" y="401"/>
      <point x="295" y="262"/>
    </contour>
  </outline>
</glyph>
<glyph name="thorn" format="1">
  <advance width="1205"/>
  <unicode hex="00FE"/>
  <outline>
    <contour>
      <point x="292" y="162" type="curve"/>
      <point x="292" y="-459" type="line"/>
      <point x="124" y="-459" type="line"/>
      <point x="124" y="1510" type="line"/>
      <point x="292" y="1510" type="line"/>
      <point x="292" y="933" type="line"/>
      <point x="378" y="1060"/>
      <point x="494" y="1124"/>
      <point x="643" y="1124" type="curve"/>
      <point x="919" y="1122"/>
      <point x="1099" y="879"/>
      <point x="1099" y="560" type="curve" smooth="yes"/>
      <point x="1099" y="268"/>
      <point x="951" y="-25"/>
      <point x="643" y="-25" type="curve" smooth="yes"/>
      <point x="491" y="-25"/>
      <point x="367" y="34"/>
    </contour>
    <contour>
      <point x="624" y="113" type="curve" smooth="yes"/>
      <point x="858" y="113"/>
      <point x="926" y="360"/>
      <point x="926" y="551" type="curve" smooth="yes"/>
      <point x="926" y="743"/>
      <point x="860" y="986"/>
      <point x="631" y="986" type="curve" smooth="yes"/>
      <point x="405" y="986"/>
      <point x="290" y="781"/>
      <point x="290" y="551" type="curve" smooth="yes"/>
      <point x="290" y="320"/>
      <point x="385" y="113"/>
    </contour>
  </outline>
</glyph>
<glyph name="dcroat" format="1">
  <advance width="1168"/>
  <unicode hex="0111"/>
  <outline>
    <contour>
      <point x="658" y="1244" type="line"/>
      <point x="658" y="1344" type="line"/>
      <point x="658" y="1344"/>
      <point x="1166" y="1344"/>
      <point x="1166" y="1344" type="curve"/>
      <point x="1166" y="1244" type="line"/>
    </contour>
    <component base="d"/>
  </outline>
</glyph>
<glyph name="gcommaaccent" format="1">
  <advance width="1158"/>
  <unicode hex="0123"/>
  <outline>
    <component base="g"/>
    <contour>
      <point x="793" y="1749" type="line"/>
      <point x="683" y="1250" type="line"/>
      <point x="488" y="1250" type="line"/>
      <point x="653" y="1749" type="line"/>
    </contour>
  </outline>
</glyph>
<glyph name="Hbar" format="1">
  <advance width="1463"/>
  <unicode hex="0126"/>
  <outline>
    <contour>
      <point x="324" y="1146" type="line"/>
      <point x="324" y="848" type="line"/>
      <point x="1141" y="848" type="line"/>
      <point x="1141" y="1146" type="line"/>
    </contour>
    <contour>
      <point x="1141" y="696" type="line"/>
      <point x="324" y="696" type="line"/>
      <point x="324" y="0" type="line"/>
      <point x="147" y="0" type="line"/>
      <point x="147" y="1146" type="line"/>
      <point x="57" y="1146" type="line"/>
      <point x="57" y="1251" type="line"/>
      <point x="147" y="1251" type="line"/>
      <point x="147" y="1496" type="line"/>
      <point x="324" y="1496" type="line"/>
      <point x="324" y="1251" type="line"/>
      <point x="1141" y="1251" type="line"/>
      <point x="1141" y="1496" type="line"/>
      <point x="1318" y="1496" type="line"/>
      <point x="1318" y="1251" type="line"/>
      <point x="1408" y="1251" type="line"/>
      <point x="1408" y="1146" type="line"/>
      <point x="1318" y="1146" type="line"/>
      <point x="1318" y="0" type="line"/>
      <point x="1141" y="0" type="line"/>
    </contour>
  </outline>
</glyph>
<glyph name="kgreenlandic" format="1">
  <advance width="1104"/>
  <unicode hex="0138"/>
  <outline>
    <contour>
      <point x="823" y="0" type="line"/>
      <point x="293" y="506" type="line"/>
      <point x="293" y="0" type="line"/>
      <point x="147" y="0" type="line"/>
      <point x="147" y="1105" type="line"/>
      <point x="293" y="1105" type="line"/>
      <point x="293" y="600" type="line"/>
      <point x="776" y="1105" type="line"/>
      <point x="981" y="1105" type="line"/>
      <point x="458" y="551" type="line"/>
      <point x="655" y="368"/>
      <point x="847" y="183"/>
      <point x="1014" y="0" type="curve"/>
    </contour>
  </outline>
</glyph>
<glyph name="Lslash" format="1">
  <advance width="960"/>
  <unicode hex="0141"/>
  <outline>
    <contour>
      <point x="0" y="527" type="line"/>
      <point x="0" y="675" type="line"/>
      <point x="148" y="756" type="line"/>
      <point x="148" y="1496" type="line"/>
      <point x="325" y="1496" type="line"/>
      <point x="325" y="853" type="line"/>
      <point x="675" y="1045" type="line"/>
      <point x="675" y="889" type="line"/>
      <point x="325" y="701" type="line"/>
      <point x="325" y="155" type="line"/>
      <point x="982" y="155" type="line"/>
      <point x="970" y="0" type="line"/>
      <point x="148" y="0" type="line"/>
      <point x="148" y="606" type="line"/>
    </contour>
  </outline>
</glyph>
<glyph name="eng" format="1">
  <advance width="1118"/>
  <unicode hex="014B"/>
  <outline>
    <contour>
      <point x="620" y="-283" type="line"/>
      <point x="608" y="-141" type="line"/>
      <point x="651" y="-141" type="line" smooth="yes"/>
      <point x="823" y="-141"/>
      <point x="843" y="-110"/>
      <point x="843" y="104" type="curve" smooth="yes"/>
      <point x="843" y="551" type="line" smooth="yes"/>
      <point x="843" y="836"/>
      <point x="832" y="980"/>
      <point x="629" y="980" type="curve" smooth="yes"/>
      <point x="445" y="980"/>
      <point x="313" y="849"/>
      <point x="286" y="750" type="curve"/>
      <point x="286" y="0" type="line"/>
      <point x="118" y="0" type="line"/>
      <point x="118" y="831" type="line"/>
      <point x="115" y="1098" type="line"/>
      <point x="259" y="1098" type="line"/>
      <point x="275" y="935" type="line"/>
      <point x="360" y="1052"/>
      <point x="513" y="1124"/>
      <point x="665" y="1124" type="curve" smooth="yes"/>
      <point x="906" y="1124"/>
      <point x="1011" y="965"/>
      <point x="1011" y="657" type="curve" smooth="yes"/>
      <point x="1011" y="158" type="line" smooth="yes"/>
      <point x="1011" y="-148"/>
      <point x="988" y="-283"/>
      <point x="691" y="-283" type="curve" smooth="yes"/>
    </contour>
  </outline>
</glyph>
<glyph name="OE" format="1">
  <advance width="1980"/>
  <unicode hex="0152"/>
  <outline>
    <contour>
      <point x="800" y="1524" type="curve" smooth="yes"/>
      <point x="948" y="1524"/>
      <point x="1073" y="1478"/>
      <point x="1148" y="1413" type="curve"/>
      <point x="1148" y="1495" type="line"/>
      <point x="1874" y="1495" type="line"/>
      <point x="1857" y="1341" type="line"/>
      <point x="1325" y="1341" type="line"/>
      <point x="1325" y="845" type="line"/>
      <point x="1821" y="845" type="line"/>
      <point x="1821" y="692" type="line"/>
      <point x="1325" y="692" type="line"/>
      <point x="1325" y="156" type="line"/>
      <point x="1898" y="156" type="line"/>
      <point x="1883" y="0" type="line"/>
      <point x="1148" y="0" type="line"/>
      <point x="1148" y="82" type="line"/>
      <point x="1105" y="36"/>
      <point x="940" y="-23"/>
      <point x="823" y="-23" type="curve" smooth="yes"/>
      <point x="348" y="-23"/>
      <point x="101" y="299"/>
      <point x="101" y="771" type="curve"/>
      <point x="111" y="1207"/>
      <point x="398" y="1524"/>
    </contour>
    <contour>
      <point x="1148" y="1259" type="line"/>
      <point x="1071" y="1322"/>
      <point x="955" y="1373"/>
      <point x="815" y="1373" type="curve" smooth="yes"/>
      <point x="491" y="1373"/>
      <point x="299" y="1121"/>
      <point x="291" y="773" type="curve"/>
      <point x="291" y="418"/>
      <point x="433" y="133"/>
      <point x="824" y="129" type="curve"/>
      <point x="953" y="129"/>
      <point x="1100" y="193"/>
      <point x="1148" y="222" type="curve"/>
    </contour>
  </outline>
</glyph>
<glyph name="Tbar" format="1">
  <advance width="1050"/>
  <unicode hex="0166"/>
  <outline>
    <contour>
      <point x="275" y="531" type="line"/>
      <point x="275" y="654" type="line"/>
      <point x="444" y="654" type="line"/>
      <point x="444" y="1341" type="line"/>
      <point x="-3" y="1341" type="line"/>
      <point x="-3" y="1496" type="line"/>
      <point x="1069" y="1496" type="line"/>
      <point x="1069" y="1341" type="line"/>
      <point x="621" y="1341" type="line"/>
      <point x="621" y="654" type="line"/>
      <point x="783" y="654" type="line"/>
      <point x="783" y="531" type="line"/>
      <point x="621" y="531" type="line"/>
      <point x="621" y="0" type="line"/>
      <point x="444" y="0" type="line"/>
      <point x="444" y="531" type="line"/>
    </contour>
  </outline>
</glyph>
<glyph name="uni018F" format="1">
  <advance width="1432"/>
  <unicode hex="018F"/>
  <outline>
    <contour>
      <point x="1125" y="631" type="curve"/>
      <point x="217" y="631" type="line"/>
      <point x="231" y="417"/>
      <point x="308" y="129"/>
      <point x="665" y="129" type="curve" smooth="yes"/>
      <point x="929" y="129"/>
      <point x="1092" y="351"/>
    </contour>
    <contour>
      <point x="661" y="-23" type="curve" smooth="yes"/>
      <point x="211" y="-23"/>
      <point x="51" y="337"/>
      <point x="37" y="641" type="curve"/>
      <point x="37" y="686"/>
      <point x="44" y="777"/>
      <point x="44" y="777" type="curve"/>
      <point x="1133" y="777" type="line"/>
      <point x="1127" y="1086"/>
      <point x="977" y="1373"/>
      <point x="592" y="1373" type="curve" smooth="yes"/>
      <point x="436" y="1373"/>
      <point x="319" y="1316"/>
      <point x="218" y="1250" type="curve"/>
      <point x="151" y="1384" type="line"/>
      <point x="279" y="1479"/>
      <point x="401" y="1525"/>
      <point x="606" y="1525" type="curve" smooth="yes"/>
      <point x="1076" y="1525"/>
      <point x="1322" y="1180"/>
      <point x="1322" y="757" type="curve" smooth="yes"/>
      <point x="1322" y="309"/>
      <point x="1054" y="-23"/>
    </contour>
  </outline>
</glyph>
<glyph name="florin" format="1">
  <advance width="978"/>
  <unicode hex="0192"/>
  <outline>
    <contour>
      <point x="412" y="865" type="curve"/>
      <point x="254" y="865" type="line"/>
      <point x="265" y="1015" type="line"/>
      <point x="438" y="1015" type="line"/>
      <point x="460" y="1178" type="line"/>
      <point x="487" y="1370"/>
      <point x="564" y="1547"/>
      <point x="783" y="1547" type="curve" smooth="yes"/>
      <point x="822" y="1547"/>
      <point x="868" y="1537"/>
      <point x="911" y="1525" type="curve"/>
      <point x="903" y="1369" type="line"/>
      <point x="867" y="1385"/>
      <point x="835" y="1393"/>
      <point x="807" y="1393" type="curve" smooth="yes"/>
      <point x="703" y="1393"/>
      <point x="670" y="1334"/>
      <point x="654" y="1227" type="curve"/>
      <point x="615" y="1015" type="line"/>
      <point x="801" y="1015" type="line"/>
      <point x="790" y="865" type="line"/>
      <point x="593" y="865" type="line"/>
      <point x="460" y="130" type="line"/>
      <point x="412" y="-127"/>
      <point x="347" y="-358"/>
      <point x="119" y="-358" type="curve" smooth="yes"/>
      <point x="94" y="-358"/>
      <point x="64" y="-350"/>
      <point x="28" y="-339" type="curve"/>
      <point x="39" y="-192" type="line"/>
      <point x="66" y="-203"/>
      <point x="89" y="-210"/>
      <point x="108" y="-210" type="curve" smooth="yes"/>
      <point x="193" y="-210"/>
      <point x="231" y="-110"/>
      <point x="255" y="6" type="curve"/>
      <point x="319" y="281"/>
      <point x="359" y="583"/>
    </contour>
  </outline>
</glyph>
<glyph name="uni0237" format="1">
  <advance width="444"/>
  <unicode hex="0237"/>
  <outline>
    <contour>
      <point x="330" y="1098" type="line"/>
      <point x="330" y="-139" type="line" smooth="yes"/>
      <point x="330" y="-407"/>
      <point x="270" y="-502"/>
      <point x="-3" y="-502" type="curve" smooth="yes"/>
      <point x="-55" y="-502" type="line"/>
      <point x="-77" y="-351" type="line"/>
      <point x="-25" y="-351" type="line" smooth="yes"/>
      <point x="157" y="-351"/>
      <point x="162" y="-286"/>
      <point x="162" y="-121" type="curve" smooth="yes"/>
      <point x="162" y="1098" type="line"/>
    </contour>
  </outline>
</glyph>
<glyph name="uni0259" format="1">
  <advance width="1091"/>
  <unicode hex="0259"/>
  <outline>
    <contour>
      <point x="505" y="1124" type="curve" smooth="yes"/>
      <point x="818" y="1124"/>
      <point x="1009" y="901"/>
      <point x="1009" y="548" type="curve" smooth="yes"/>
      <point x="1009" y="220"/>
      <point x="818" y="-17"/>
      <point x="532" y="-25" type="curve"/>
      <point x="516" y="-25" type="line" smooth="yes"/>
      <point x="243" y="-25"/>
      <point x="84" y="181"/>
      <point x="84" y="505" type="curve" smooth="yes"/>
      <point x="84" y="521"/>
      <point x="86" y="561"/>
      <point x="86" y="580" type="curve"/>
      <point x="837" y="580" type="line"/>
      <point x="837" y="827"/>
      <point x="693" y="980"/>
      <point x="500" y="980" type="curve" smooth="yes"/>
      <point x="344" y="980"/>
      <point x="230" y="923"/>
      <point x="152" y="870" type="curve"/>
      <point x="100" y="992" type="line"/>
      <point x="190" y="1069"/>
      <point x="329" y="1124"/>
    </contour>
    <contour>
      <point x="526" y="111" type="curve" smooth="yes"/>
      <point x="692" y="111"/>
      <point x="812" y="248"/>
      <point x="831" y="464" type="curve"/>
      <point x="246" y="464" type="line"/>
      <point x="246" y="230"/>
      <point x="363" y="111"/>
    </contour>
  </outline>
</glyph>
<glyph name="caron" format="1">
  <advance width="800"/>
  <unicode hex="02C7"/>
  <outline>
    <contour>
      <point x="108" y="1639" type="line"/>
      <point x="239" y="1639" type="line"/>
      <point x="400" y="1327" type="line"/>
      <point x="561" y="1639" type="line"/>
      <point x="695" y="1639" type="line"/>
      <point x="508" y="1251" type="line"/>
      <point x="295" y="1251" type="line"/>
    </contour>
  </outline>
</glyph>
<glyph name="breve" format="1">
  <advance width="754"/>
  <unicode hex="02D8"/>
  <outline>
    <contour>
      <point x="377" y="1299" type="curve" smooth="yes"/>
      <point x="254" y="1299"/>
      <point x="128" y="1385"/>
      <point x="128" y="1557" type="curve"/>
      <point x="244" y="1557" type="line"/>
      <point x="244" y="1461"/>
      <point x="304" y="1416"/>
      <point x="377" y="1416" type="curve" smooth="yes"/>
      <point x="450" y="1416"/>
      <point x="513" y="1461"/>
      <point x="513" y="1557" type="curve"/>
      <point x="630" y="1557" type="line"/>
      <point x="630" y="1385"/>
      <point x="501" y="1299"/>
    </contour>
  </outline>
</glyph>
<glyph name="dotaccent" format="1">
  <advance width="411"/>
  <unicode hex="02D9"/>
  <outline>
    <contour>
      <point x="208" y="1539" type="curve" smooth="yes"/>
      <point x="297" y="1539"/>
      <point x="341" y="1473"/>
      <point x="341" y="1407" type="curve" smooth="yes"/>
      <point x="341" y="1341"/>
      <point x="297" y="1275"/>
      <point x="208" y="1275" type="curve" smooth="yes"/>
      <point x="120" y="1275"/>
      <point x="75" y="1341"/>
      <point x="75" y="1407" type="curve" smooth="yes"/>
      <point x="75" y="1473"/>
      <point x="120" y="1539"/>
    </contour>
  </outline>
</glyph>
<glyph name="ring" format="1">
  <advance width="634"/>
  <unicode hex="02DA"/>
  <outline>
    <contour>
      <point x="320" y="1330" type="curve" smooth="yes"/>
      <point x="371" y="1330"/>
      <point x="416" y="1381"/>
      <point x="416" y="1442" type="curve" smooth="yes"/>
      <point x="416" y="1503"/>
      <point x="375" y="1557"/>
      <point x="320" y="1557" type="curve" smooth="yes"/>
      <point x="269" y="1557"/>
      <point x="221" y="1503"/>
      <point x="221" y="1442" type="curve" smooth="yes"/>
      <point x="221" y="1375"/>
      <point x="259" y="1330"/>
    </contour>
    <contour>
      <point x="320" y="1638" type="curve" smooth="yes"/>
      <point x="424" y="1638"/>
      <point x="514" y="1554"/>
      <point x="514" y="1442" type="curve" smooth="yes"/>
      <point x="514" y="1327"/>
      <point x="421" y="1257"/>
      <point x="322" y="1257" type="curve" smooth="yes"/>
      <point x="218" y="1257"/>
      <point x="125" y="1327"/>
      <point x="125" y="1442" type="curve" smooth="yes"/>
      <point x="125" y="1561"/>
      <point x="219" y="1638"/>
    </contour>
  </outline>
</glyph>
<glyph name="uni030F" format="1">
  <advance width="855"/>
  <unicode hex="030F"/>
  <outline>
    <contour>
      <point x="359" y="1259" type="line"/>
      <point x="109" y="1594" type="line"/>
      <point x="259" y="1594" type="line"/>
      <point x="461" y="1259" type="line"/>
    </contour>
    <contour>
      <point x="627" y="1259" type="line"/>
      <point x="380" y="1594" type="line"/>
      <point x="531" y="1594" type="line"/>
      <point x="729" y="1259" type="line"/>
    </contour>
  </outline>
</glyph>
<glyph name="uni0311" format="1">
  <advance width="767"/>
  <unicode hex="0311"/>
  <outline>
    <contour>
      <point x="383" y="1557" type="curve" smooth="yes"/>
      <point x="507" y="1557"/>
      <point x="636" y="1471"/>
      <point x="636" y="1299" type="curve"/>
      <point x="519" y="1299" type="line"/>
      <point x="519" y="1395"/>
      <point x="456" y="1440"/>
      <point x="383" y="1440" type="curve" smooth="yes"/>
      <point x="310" y="1440"/>
      <point x="250" y="1395"/>
      <point x="250" y="1299" type="curve"/>
      <point x="134" y="1299" type="line"/>
      <point x="134" y="1471"/>
      <point x="260" y="1557"/>
    </contour>
  </outline>
</glyph>
<glyph name="commaaccentcomb" format="1">
  <advance width="554"/>
  <unicode hex="0326"/>
  <outline>
    <contour>
      <point x="144" y="-648" type="line"/>
      <point x="239" y="-150" type="line"/>
      <point x="404" y="-150" type="line"/>
      <point x="260" y="-648" type="line"/>
    </contour>
  </outline>
</glyph>
<glyph name="Delta" format="1">
  <advance width="1265"/>
  <unicode hex="0394"/>
  <outline>
    <contour>
      <point x="-10" y="0" type="line"/>
      <point x="539" y="1496" type="line"/>
      <point x="724" y="1496" type="line"/>
      <point x="1275" y="0" type="line"/>
    </contour>
    <contour>
      <point x="1038" y="155" type="line"/>
      <point x="632" y="1306" type="line"/>
      <point x="231" y="155" type="line"/>
    </contour>
  </outline>
</glyph>
<glyph name="Pi" format="1">
  <advance width="1465"/>
  <unicode hex="03A0"/>
  <outline>
    <contour>
      <point x="1141" y="1344" type="line"/>
      <point x="324" y="1344" type="line"/>
      <point x="324" y="0" type="line"/>
      <point x="147" y="0" type="line"/>
      <point x="147" y="1496" type="line"/>
      <point x="1318" y="1496" type="line"/>
      <point x="1318" y="0" type="line"/>
      <point x="1141" y="0" type="line"/>
    </contour>
  </outline>
</glyph>
<glyph name="zeta" format="1">
  <advance width="468"/>
  <unicode hex="03B6"/>
  <outline>
    <contour>
      <point x="237" y="796" type="curve" smooth="yes"/>
      <point x="326" y="796"/>
      <point x="370" y="730"/>
      <point x="370" y="664" type="curve" smooth="yes"/>
      <point x="370" y="598"/>
      <point x="326" y="532"/>
      <point x="237" y="532" type="curve" smooth="yes"/>
      <point x="149" y="532"/>
      <point x="104" y="598"/>
      <point x="104" y="664" type="curve" smooth="yes"/>
      <point x="104" y="730"/>
      <point x="149" y="796"/>
    </contour>
  </outline>
</glyph>
<glyph name="afii10051" format="1">
  <advance width="1026"/>
  <unicode hex="0402"/>
  <outline>
    <contour>
      <point x="-23" y="1341" type="line"/>
      <point x="-23" y="1496" type="line"/>
      <point x="1049" y="1496" type="line"/>
      <point x="1049" y="1341" type="line"/>
      <point x="601" y="1341" type="line"/>
      <point x="601" y="0" type="line"/>
      <point x="424" y="0" type="line"/>
      <point x="424" y="1341" type="line"/>
    </contour>
  </outline>
</glyph>
<glyph name="afii10053" format="1">
  <advance width="1325"/>
  <unicode hex="0404"/>
  <outline>
    <contour>
      <point x="265" y="664" type="line"/>
      <point x="294" y="370"/>
      <point x="465" y="129"/>
      <point x="785" y="129" type="curve" smooth="yes"/>
      <point x="938" y="129"/>
      <point x="1077" y="184"/>
      <point x="1160" y="248" type="curve"/>
      <point x="1224" y="113" type="line"/>
      <point x="1121" y="29"/>
      <point x="973" y="-23"/>
      <point x="776" y="-23" type="curve" smooth="yes"/>
      <point x="315" y="-23"/>
      <point x="72" y="315"/>
      <point x="72" y="757" type="curve" smooth="yes"/>
      <point x="72" y="1180"/>
      <point x="312" y="1525"/>
      <point x="782" y="1525" type="curve" smooth="yes"/>
      <point x="976" y="1525"/>
      <point x="1120" y="1483"/>
      <point x="1219" y="1395" type="curve"/>
      <point x="1161" y="1250" type="line"/>
      <point x="1079" y="1316"/>
      <point x="946" y="1373"/>
      <point x="796" y="1373" type="curve" smooth="yes"/>
      <point x="428" y="1373"/>
      <point x="281" y="1111"/>
      <point x="263" y="818" type="curve"/>
      <point x="954" y="818" type="line"/>
      <point x="954" y="664" type="line"/>
    </contour>
  </outline>
</glyph>
<glyph name="afii10145" format="1">
  <advance width="1463"/>
  <unicode hex="040F"/>
  <outline>
    <contour>
      <point x="1139" y="154" type="line"/>
      <point x="1139" y="1496" type="line"/>
      <point x="1316" y="1496" type="line"/>
      <point x="1316" y="0" type="line"/>
      <point x="147" y="0" type="line"/>
      <point x="147" y="1496" type="line"/>
      <point x="324" y="1496" type="line"/>
      <point x="324" y="154" type="line"/>
    </contour>
  </outline>
</glyph>
<glyph name="afii10019" format="1">
  <advance width="1252"/>
  <unicode hex="0412"/>
  <outline>
    <contour>
      <point x="147" y="0" type="line"/>
      <point x="147" y="1496" type="line"/>
      <point x="554" y="1496" type="line" smooth="yes"/>
      <point x="915" y="1496"/>
      <point x="1122" y="1395"/>
      <point x="1122" y="1131" type="curve" smooth="yes"/>
      <point x="1122" y="988"/>
      <point x="1061" y="851"/>
      <point x="910" y="801" type="curve"/>
      <point x="1098" y="761"/>
      <point x="1184" y="585"/>
      <point x="1184" y="426" type="curve" smooth="yes"/>
      <point x="1184" y="163"/>
      <point x="1030" y="0"/>
      <point x="641" y="0" type="curve" smooth="yes"/>
    </contour>
    <contour>
      <point x="324" y="1349" type="line"/>
      <point x="324" y="846" type="line"/>
      <point x="639" y="846" type="line" smooth="yes"/>
      <point x="778" y="846"/>
      <point x="937" y="885"/>
      <point x="937" y="1096" type="curve" smooth="yes"/>
      <point x="937" y="1321"/>
      <point x="771" y="1349"/>
      <point x="528" y="1349" type="curve" smooth="yes"/>
    </contour>
    <contour>
      <point x="324" y="708" type="line"/>
      <point x="324" y="142" type="line"/>
      <point x="608" y="142" type="line" smooth="yes"/>
      <point x="868" y="142"/>
      <point x="1004" y="227"/>
      <point x="1004" y="428" type="curve" smooth="yes"/>
      <point x="1004" y="616"/>
      <point x="883" y="708"/>
      <point x="659" y="708" type="curve" smooth="yes"/>
    </contour>
  </outline>
</glyph>
<glyph name="afii10025" format="1">
  <advance width="1148"/>
  <unicode hex="0417"/>
  <outline>
    <contour>
      <point x="539" y="677" type="curve" smooth="yes"/>
      <point x="421" y="677" type="line"/>
      <point x="421" y="837" type="line"/>
      <point x="548" y="837" type="line" smooth="yes"/>
      <point x="761" y="837"/>
      <point x="848" y="973"/>
      <point x="848" y="1098" type="curve" smooth="yes"/>
      <point x="848" y="1113" type="line"/>
      <point x="839" y="1280"/>
      <point x="710" y="1372"/>
      <point x="557" y="1372" type="curve" smooth="yes"/>
      <point x="427" y="1372"/>
      <point x="279" y="1323"/>
      <point x="188" y="1270" type="curve"/>
      <point x="122" y="1403" type="line"/>
      <point x="234" y="1488"/>
      <point x="388" y="1524"/>
      <point x="568" y="1524" type="curve" smooth="yes"/>
      <point x="879" y="1524"/>
      <point x="1022" y="1295"/>
      <point x="1022" y="1134" type="curve" smooth="yes"/>
      <point x="1022" y="955"/>
      <point x="914" y="807"/>
      <point x="785" y="769" type="curve"/>
      <point x="924" y="737"/>
      <point x="1058" y="587"/>
      <point x="1058" y="402" type="curve" smooth="yes"/>
      <point x="1058" y="148"/>
      <point x="883" y="-23"/>
      <point x="535" y="-23" type="curve" smooth="yes"/>
      <point x="338" y="-23"/>
      <point x="185" y="34"/>
      <point x="85" y="103" type="curve"/>
      <point x="148" y="246" type="line"/>
      <point x="234" y="183"/>
      <point x="380" y="129"/>
      <point x="532" y="129" type="curve" smooth="yes"/>
      <point x="719" y="129"/>
      <point x="882" y="208"/>
      <point x="882" y="403" type="curve" smooth="yes"/>
      <point x="882" y="543"/>
      <point x="786" y="677"/>
    </contour>
  </outline>
</glyph>
<glyph name="afii10034" format="1">
  <advance width="1140"/>
  <unicode hex="0420"/>
  <outline>
    <contour>
      <point x="324" y="626" type="line"/>
      <point x="324" y="0" type="line"/>
      <point x="147" y="0" type="line"/>
      <point x="147" y="1496" type="line"/>
      <point x="641" y="1496" type="line" smooth="yes"/>
      <point x="925" y="1496"/>
      <point x="1109" y="1358"/>
      <point x="1109" y="1069" type="curve" smooth="yes"/>
      <point x="1109" y="754"/>
      <point x="917" y="626"/>
      <point x="641" y="626" type="curve" smooth="yes"/>
    </contour>
    <contour>
      <point x="645" y="779" type="line" smooth="yes"/>
      <point x="836" y="779"/>
      <point x="929" y="889"/>
      <point x="929" y="1066" type="curve" smooth="yes"/>
      <point x="929" y="1243"/>
      <point x="830" y="1341"/>
      <point x="645" y="1341" type="curve" smooth="yes"/>
      <point x="324" y="1341" type="line"/>
      <point x="324" y="779" type="line"/>
    </contour>
  </outline>
</glyph>
<glyph name="afii10038" format="1">
  <advance width="1727"/>
  <unicode hex="0424"/>
  <outline>
    <contour>
      <point x="937" y="1496" type="line"/>
      <point x="937" y="1364" type="line"/>
      <point x="1363" y="1335"/>
      <point x="1626" y="1120"/>
      <point x="1626" y="745" type="curve" smooth="yes"/>
      <point x="1626" y="370"/>
      <point x="1363" y="155"/>
      <point x="937" y="126" type="curve"/>
      <point x="937" y="0" type="line"/>
      <point x="774" y="0" type="line"/>
      <point x="774" y="128" type="line"/>
      <point x="342" y="165"/>
      <point x="101" y="391"/>
      <point x="101" y="745" type="curve" smooth="yes"/>
      <point x="101" y="1099"/>
      <point x="342" y="1325"/>
      <point x="774" y="1362" type="curve"/>
      <point x="774" y="1496" type="line"/>
    </contour>
    <contour>
      <point x="937" y="1207" type="curve"/>
      <point x="937" y="284" type="line"/>
      <point x="1283" y="316"/>
      <point x="1437" y="489"/>
      <point x="1437" y="745" type="curve" smooth="yes"/>
      <point x="1437" y="1001"/>
      <point x="1283" y="1175"/>
    </contour>
    <contour>
      <point x="774" y="1205" type="line"/>
      <point x="443" y="1170"/>
      <point x="290" y="1000"/>
      <point x="290" y="745" type="curve" smooth="yes"/>
      <point x="290" y="489"/>
      <point x="443" y="320"/>
      <point x="774" y="285" type="curve"/>
    </contour>
  </outline>
</glyph>
<glyph name="afii10041" format="1">
  <advance width="1238"/>
  <unicode hex="0427"/>
  <outline>
    <contour>
      <point x="915" y="873" type="curve" smooth="yes"/>
      <point x="915" y="1496" type="line"/>
      <point x="1092" y="1496" type="line"/>
      <point x="1092" y="0" type="line"/>
      <point x="915" y="0" type="line"/>
      <point x="915" y="682" type="line"/>
      <point x="835" y="564"/>
      <point x="677" y="507"/>
      <point x="538" y="507" type="curve" smooth="yes"/>
      <point x="285" y="507"/>
      <point x="123" y="653"/>
      <point x="123" y="916" type="curve" smooth="yes"/>
      <point x="123" y="1496" type="line"/>
      <point x="300" y="1496" type="line"/>
      <point x="300" y="1014" type="line" smooth="yes"/>
      <point x="300" y="775"/>
      <point x="390" y="672"/>
      <point x="575" y="672" type="curve" smooth="yes"/>
      <point x="719" y="672"/>
      <point x="915" y="806"/>
    </contour>
  </outline>
</glyph>
<glyph name="afii10042" format="1">
  <advance width="1671"/>
  <unicode hex="0428"/>
  <outline>
    <contour>
      <point x="324" y="155" type="line"/>
      <point x="746" y="155" type="line"/>
      <point x="746" y="1496" type="line"/>
      <point x="923" y="1496" type="line"/>
      <point x="923" y="155" type="line"/>
      <point x="1347" y="155" type="line"/>
      <point x="1347" y="1496" type="line"/>
      <point x="1524" y="1496" type="line"/>
      <point x="1524" y="0" type="line"/>
      <point x="147" y="0" type="line"/>
      <point x="147" y="1496" type="line"/>
      <point x="324" y="1496" type="line"/>
    </contour>
  </outline>
</glyph>
<glyph name="afii10043" format="1">
  <advance width="1735"/>
  <unicode hex="0429"/>
  <outline>
    <contour>
      <point x="1462" y="-265" type="line"/>
      <point x="1462" y="0" type="line"/>
      <point x="147" y="0" type="line"/>
      <point x="147" y="1496" type="line"/>
      <point x="324" y="1496" type="line"/>
      <point x="324" y="155" type="line"/>
      <point x="747" y="155" type="line"/>
      <point x="747" y="1496" type="line"/>
      <point x="924" y="1496" type="line"/>
      <point x="924" y="155" type="line"/>
      <point x="1348" y="155" type="line"/>
      <point x="1348" y="1496" type="line"/>
      <point x="1525" y="1496" type="line"/>
      <point x="1525" y="155" type="line"/>
      <point x="1639" y="155" type="line"/>
      <point x="1639" y="-265" type="line"/>
    </contour>
  </outline>
</glyph>
<glyph name="afii10044" format="1">
  <advance width="1424"/>
  <unicode hex="042A"/>
  <outline>
    <contour>
      <point x="420" y="0" type="line"/>
      <point x="420" y="1341" type="line"/>
      <point x="35" y="1341" type="line"/>
      <point x="35" y="1496" type="line"/>
      <point x="597" y="1496" type="line"/>
      <point x="597" y="849" type="line"/>
      <point x="807" y="849" type="line" smooth="yes"/>
      <point x="1152" y="849"/>
      <point x="1347" y="717"/>
      <point x="1347" y="428" type="curve" smooth="yes"/>
      <point x="1347" y="139"/>
      <point x="1152" y="0"/>
      <point x="807" y="0" type="curve" smooth="yes"/>
    </contour>
    <contour>
      <point x="1181" y="431" type="curve" smooth="yes"/>
      <point x="1181" y="593"/>
      <point x="1080" y="696"/>
      <point x="828" y="696" type="curve" smooth="yes"/>
      <point x="597" y="696" type="line"/>
      <point x="597" y="156" type="line"/>
      <point x="828" y="156" type="line" smooth="yes"/>
      <point x="1076" y="156"/>
      <point x="1181" y="255"/>
    </contour>
  </outline>
</glyph>
<glyph name="afii10045" format="1">
  <advance width="1583"/>
  <unicode hex="042B"/>
  <outline>
    <component base="afii10046"/>
    <contour>
      <point x="1436" y="1496" type="line"/>
      <point x="1436" y="0" type="line"/>
      <point x="1259" y="0" type="line"/>
      <point x="1259" y="1496" type="line"/>
    </contour>
  </outline>
</glyph>
<glyph name="afii10047" format="1">
  <advance width="1325"/>
  <unicode hex="042D"/>
  <outline>
    <contour>
      <point x="520" y="-23" type="curve" smooth="yes"/>
      <point x="323" y="-23"/>
      <point x="175" y="29"/>
      <point x="72" y="113" type="curve"/>
      <point x="136" y="248" type="line"/>
      <point x="219" y="184"/>
      <point x="358" y="129"/>
      <point x="511" y="129" type="curve" smooth="yes"/>
      <point x="831" y="129"/>
      <point x="1002" y="370"/>
      <point x="1031" y="664" type="curve"/>
      <point x="342" y="664" type="line"/>
      <point x="342" y="818" type="line"/>
      <point x="1033" y="818" type="line"/>
      <point x="1015" y="1111"/>
      <point x="868" y="1373"/>
      <point x="500" y="1373" type="curve" smooth="yes"/>
      <point x="350" y="1373"/>
      <point x="217" y="1316"/>
      <point x="135" y="1250" type="curve"/>
      <point x="77" y="1395" type="line"/>
      <point x="178" y="1483"/>
      <point x="325" y="1525"/>
      <point x="523" y="1525" type="curve" smooth="yes"/>
      <point x="987" y="1525"/>
      <point x="1224" y="1180"/>
      <point x="1224" y="757" type="curve" smooth="yes"/>
      <point x="1224" y="315"/>
      <point x="981" y="-23"/>
    </contour>
  </outline>
</glyph>
<glyph name="afii10048" format="1">
  <advance width="2042"/>
  <unicode hex="042E"/>
  <outline>
    <contour>
      <point x="1289" y="-23" type="curve" smooth="yes"/>
      <point x="893" y="-23"/>
      <point x="666" y="295"/>
      <point x="637" y="686" type="curve"/>
      <point x="324" y="686" type="line"/>
      <point x="324" y="0" type="line"/>
      <point x="147" y="0" type="line"/>
      <point x="147" y="1495" type="line"/>
      <point x="324" y="1495" type="line"/>
      <point x="324" y="837" type="line"/>
      <point x="640" y="837" type="line"/>
      <point x="672" y="1240"/>
      <point x="893" y="1525"/>
      <point x="1280" y="1525" type="curve" smooth="yes"/>
      <point x="1699" y="1525"/>
      <point x="1941" y="1189"/>
      <point x="1941" y="742" type="curve" smooth="yes"/>
      <point x="1941" y="322"/>
      <point x="1709" y="-23"/>
    </contour>
    <contour>
      <point x="1282" y="1373" type="curve" smooth="yes"/>
      <point x="974" y="1373"/>
      <point x="825" y="1073"/>
      <point x="825" y="746" type="curve" smooth="yes"/>
      <point x="825" y="420"/>
      <point x="981" y="129"/>
      <point x="1291" y="129" type="curve" smooth="yes"/>
      <point x="1600" y="129"/>
      <point x="1752" y="415"/>
      <point x="1752" y="748" type="curve" smooth="yes"/>
      <point x="1752" y="1065"/>
      <point x="1600" y="1373"/>
    </contour>
  </outline>
</glyph>
<glyph name="afii10066" format="1">
  <advance width="1015"/>
  <unicode hex="0431"/>
  <outline>
    <contour>
      <point x="583" y="579" type="curve" smooth="yes"/>
      <point x="283" y="579" type="line"/>
      <point x="283" y="134" type="line"/>
      <point x="583" y="134" type="line" smooth="yes"/>
      <point x="716" y="134"/>
      <point x="793" y="272"/>
      <point x="793" y="371" type="curve" smooth="yes"/>
      <point x="793" y="470"/>
      <point x="716" y="579"/>
    </contour>
    <contour>
      <point x="115" y="1098" type="line"/>
      <point x="844" y="1098" type="line"/>
      <point x="844" y="956" type="line"/>
      <point x="283" y="956" type="line"/>
      <point x="283" y="715" type="line"/>
      <point x="565" y="715" type="line" smooth="yes"/>
      <point x="834" y="715"/>
      <point x="955" y="548"/>
      <point x="955" y="368" type="curve" smooth="yes"/>
      <point x="955" y="188"/>
      <point x="834" y="0"/>
      <point x="565" y="0" type="curve" smooth="yes"/>
      <point x="115" y="0" type="line"/>
    </contour>
  </outline>
</glyph>
<glyph name="afii10067" format="1">
  <advance width="1033"/>
  <unicode hex="0432"/>
  <outline>
    <contour>
      <point x="968" y="316" type="curve"/>
      <point x="968" y="150"/>
      <point x="843" y="0"/>
      <point x="567" y="0" type="curve" smooth="yes"/>
      <point x="115" y="0" type="line"/>
      <point x="115" y="1098" type="line"/>
      <point x="567" y="1098" type="line" smooth="yes"/>
      <point x="826" y="1098"/>
      <point x="934" y="956"/>
      <point x="934" y="808" type="curve" smooth="yes"/>
      <point x="934" y="719"/>
      <point x="891" y="625"/>
      <point x="788" y="575" type="curve"/>
      <point x="908" y="524"/>
      <point x="963" y="412"/>
    </contour>
    <contour>
      <point x="576" y="500" type="curve" smooth="yes"/>
      <point x="283" y="500" type="line"/>
      <point x="283" y="134" type="line"/>
      <point x="576" y="134" type="line" smooth="yes"/>
      <point x="724" y="134"/>
      <point x="807" y="212"/>
      <point x="807" y="326" type="curve"/>
      <point x="802" y="410"/>
      <point x="724" y="500"/>
    </contour>
    <contour>
      <point x="283" y="637" type="line"/>
      <point x="576" y="637" type="line" smooth="yes"/>
      <point x="709" y="637"/>
      <point x="774" y="719"/>
      <point x="774" y="796" type="curve" smooth="yes"/>
      <point x="774" y="887"/>
      <point x="709" y="956"/>
      <point x="576" y="956" type="curve" smooth="yes"/>
      <point x="283" y="956" type="line"/>
    </contour>
  </outline>
</glyph>
<glyph name="afii10068" format="1">
  <advance width="666"/>
  <unicode hex="0433"/>
  <outline>
    <contour>
      <point x="649" y="956" type="line"/>
      <point x="283" y="956" type="line"/>
      <point x="283" y="0" type="line"/>
      <point x="115" y="0" type="line"/>
      <point x="115" y="1098" type="line"/>
      <point x="649" y="1098" type="line"/>
    </contour>
  </outline>
</glyph>
<glyph name="afii10069" format="1">
  <advance width="1104"/>
  <unicode hex="0434"/>
  <outline>
    <contour>
      <point x="168" y="0" type="line"/>
      <point x="168" y="-268" type="line"/>
      <point x="10" y="-268" type="line"/>
      <point x="10" y="136" type="line"/>
      <point x="106" y="136" type="line"/>
      <point x="189" y="236"/>
      <point x="214" y="449"/>
      <point x="222" y="581" type="curve" smooth="yes"/>
      <point x="254" y="1098" type="line"/>
      <point x="949" y="1098" type="line"/>
      <point x="949" y="134" type="line"/>
      <point x="1036" y="134" type="line"/>
      <point x="1036" y="-268" type="line"/>
      <point x="873" y="-268" type="line"/>
      <point x="873" y="0" type="line"/>
    </contour>
    <contour>
      <point x="294" y="134" type="curve"/>
      <point x="781" y="134" type="line"/>
      <point x="781" y="956" type="line"/>
      <point x="409" y="956" type="line"/>
      <point x="397" y="634" type="line" smooth="yes"/>
      <point x="391" y="460"/>
      <point x="349" y="213"/>
    </contour>
  </outline>
</glyph>
<glyph name="afii10072" format="1">
  <advance width="1506"/>
  <unicode hex="0436"/>
  <outline>
    <contour>
      <point x="671" y="593" type="line"/>
      <point x="671" y="1098" type="line"/>
      <point x="836" y="1098" type="line"/>
      <point x="836" y="593" type="line"/>
      <point x="1281" y="1098" type="line"/>
      <point x="1480" y="1098" type="line"/>
      <point x="988" y="562" type="line"/>
      <point x="1490" y="0" type="line"/>
      <point x="1287" y="0" type="line"/>
      <point x="836" y="509" type="line"/>
      <point x="836" y="0" type="line"/>
      <point x="671" y="0" type="line"/>
      <point x="671" y="509" type="line"/>
      <point x="220" y="0" type="line"/>
      <point x="17" y="0" type="line"/>
      <point x="519" y="562" type="line"/>
      <point x="27" y="1098" type="line"/>
      <point x="226" y="1098" type="line"/>
    </contour>
  </outline>
</glyph>
<glyph name="afii10074" format="1">
  <advance width="1117"/>
  <unicode hex="0438"/>
  <outline>
    <contour>
      <point x="1002" y="0" type="line"/>
      <point x="834" y="0" type="line"/>
      <point x="834" y="746" type="line"/>
      <point x="273" y="0" type="line"/>
      <point x="115" y="0" type="line"/>
      <point x="115" y="1098" type="line"/>
      <point x="283" y="1098" type="line"/>
      <point x="283" y="261" type="line"/>
      <point x="834" y="995" type="line"/>
      <point x="834" y="1098" type="line"/>
      <point x="1002" y="1098" type="line"/>
    </contour>
  </outline>
</glyph>
<glyph name="afii10076" format="1">
  <advance width="997"/>
  <unicode hex="043A"/>
  <outline>
    <contour>
      <point x="283" y="605" type="line"/>
      <point x="485" y="834" type="line" smooth="yes"/>
      <point x="658" y="1030"/>
      <point x="705" y="1110"/>
      <point x="860" y="1110" type="curve" smooth="yes"/>
      <point x="887" y="1110"/>
      <point x="901" y="1105"/>
      <point x="937" y="1098" type="curve"/>
      <point x="937" y="947" type="line"/>
      <point x="910" y="951"/>
      <point x="886" y="956"/>
      <point x="865" y="956" type="curve" smooth="yes"/>
      <point x="770" y="956"/>
      <point x="688" y="805"/>
      <point x="524" y="642" type="curve" smooth="yes"/>
      <point x="423" y="542" type="line"/>
      <point x="990" y="0" type="line"/>
      <point x="763" y="0" type="line"/>
      <point x="283" y="474" type="line"/>
      <point x="283" y="0" type="line"/>
      <point x="115" y="0" type="line"/>
      <point x="115" y="1098" type="line"/>
      <point x="283" y="1098" type="line"/>
    </contour>
  </outline>
</glyph>
<glyph name="afii10077" format="1">
  <advance width="1172"/>
  <unicode hex="043B"/>
  <outline>
    <contour>
      <point x="202" y="1098" type="line"/>
      <point x="1057" y="1098" type="line"/>
      <point x="1057" y="0" type="line"/>
      <point x="889" y="0" type="line"/>
      <point x="889" y="956" type="line"/>
      <point x="370" y="956" type="line"/>
      <point x="370" y="419" type="line" smooth="yes"/>
      <point x="370" y="91"/>
      <point x="366" y="-25"/>
      <point x="61" y="-25" type="curve" smooth="yes"/>
      <point x="24" y="-25" type="line"/>
      <point x="14" y="128" type="line"/>
      <point x="61" y="128" type="line" smooth="yes"/>
      <point x="200" y="128"/>
      <point x="202" y="185"/>
      <point x="202" y="409" type="curve" smooth="yes"/>
    </contour>
  </outline>
</glyph>
<glyph name="afii10078" format="1">
  <advance width="1178"/>
  <unicode hex="043C"/>
  <outline>
    <contour>
      <point x="648" y="385" type="line"/>
      <point x="541" y="385" type="line"/>
      <point x="282" y="811" type="line"/>
      <point x="282" y="0" type="line"/>
      <point x="114" y="0" type="line"/>
      <point x="114" y="1098" type="line"/>
      <point x="262" y="1098" type="line"/>
      <point x="588" y="583" type="line"/>
      <point x="916" y="1098" type="line"/>
      <point x="1063" y="1098" type="line"/>
      <point x="1063" y="0" type="line"/>
      <point x="895" y="0" type="line"/>
      <point x="895" y="811" type="line"/>
    </contour>
  </outline>
</glyph>
<glyph name="afii10081" format="1">
  <advance width="1194"/>
  <unicode hex="043F"/>
  <outline>
    <contour>
      <point x="152" y="1098" type="line"/>
      <point x="1039" y="1098" type="line"/>
      <point x="1039" y="0" type="line"/>
      <point x="871" y="0" type="line"/>
      <point x="871" y="956" type="line"/>
      <point x="320" y="956" type="line"/>
      <point x="320" y="0" type="line"/>
      <point x="152" y="0" type="line"/>
    </contour>
  </outline>
</glyph>
<glyph name="afii10084" format="1">
  <advance width="847"/>
  <unicode hex="0442"/>
  <outline>
    <contour>
      <point x="43" y="1098" type="line"/>
      <point x="805" y="1098" type="line"/>
      <point x="805" y="956" type="line"/>
      <point x="512" y="956" type="line"/>
      <point x="512" y="0" type="line"/>
      <point x="344" y="0" type="line"/>
      <point x="344" y="956" type="line"/>
      <point x="43" y="956" type="line"/>
    </contour>
  </outline>
</glyph>
<glyph name="afii10086" format="1">
  <advance width="1409"/>
  <unicode hex="0444"/>
  <outline>
    <contour>
      <point x="620" y="1312" type="line"/>
      <point x="788" y="1312" type="line"/>
      <point x="788" y="1039" type="line"/>
      <point x="835" y="1058"/>
      <point x="882" y="1070"/>
      <point x="927" y="1070" type="curve" smooth="yes"/>
      <point x="1164" y="1070"/>
      <point x="1323" y="844"/>
      <point x="1323" y="558" type="curve" smooth="yes"/>
      <point x="1323" y="274"/>
      <point x="1162" y="32"/>
      <point x="928" y="32" type="curve" smooth="yes"/>
      <point x="883" y="32"/>
      <point x="835" y="38"/>
      <point x="788" y="57" type="curve"/>
      <point x="788" y="-195" type="line"/>
      <point x="620" y="-195" type="line"/>
      <point x="620" y="57" type="line"/>
      <point x="573" y="38"/>
      <point x="523" y="32"/>
      <point x="478" y="32" type="curve" smooth="yes"/>
      <point x="245" y="32"/>
      <point x="86" y="273"/>
      <point x="86" y="558" type="curve" smooth="yes"/>
      <point x="86" y="844"/>
      <point x="242" y="1070"/>
      <point x="480" y="1070" type="curve" smooth="yes"/>
      <point x="523" y="1070"/>
      <point x="573" y="1058"/>
      <point x="620" y="1039" type="curve"/>
    </contour>
    <contour>
      <point x="927" y="934" type="curve" smooth="yes"/>
      <point x="882" y="934"/>
      <point x="839" y="927"/>
      <point x="788" y="902" type="curve"/>
      <point x="788" y="198" type="line"/>
      <point x="836" y="173"/>
      <point x="881" y="168"/>
      <point x="924" y="168" type="curve" smooth="yes"/>
      <point x="1065" y="168"/>
      <point x="1149" y="359"/>
      <point x="1149" y="556" type="curve" smooth="yes"/>
      <point x="1149" y="755"/>
      <point x="1068" y="934"/>
    </contour>
    <contour>
      <point x="483" y="168" type="curve" smooth="yes"/>
      <point x="526" y="168"/>
      <point x="572" y="174"/>
      <point x="620" y="196" type="curve"/>
      <point x="620" y="906" type="line"/>
      <point x="569" y="931"/>
      <point x="523" y="934"/>
      <point x="480" y="934" type="curve" smooth="yes"/>
      <point x="338" y="934"/>
      <point x="260" y="755"/>
      <point x="260" y="556" type="curve" smooth="yes"/>
      <point x="260" y="359"/>
      <point x="341" y="168"/>
    </contour>
  </outline>
</glyph>
<glyph name="afii10090" format="1">
  <advance width="1322"/>
  <unicode hex="0448"/>
  <outline>
    <contour>
      <point x="283" y="144" type="line"/>
      <point x="577" y="144" type="line"/>
      <point x="577" y="1098" type="line"/>
      <point x="745" y="1098" type="line"/>
      <point x="745" y="144" type="line"/>
      <point x="1039" y="144" type="line"/>
      <point x="1039" y="1098" type="line"/>
      <point x="1207" y="1098" type="line"/>
      <point x="1207" y="0" type="line"/>
      <point x="115" y="0" type="line"/>
      <point x="115" y="1098" type="line"/>
      <point x="283" y="1098" type="line"/>
    </contour>
  </outline>
</glyph>
<glyph name="afii10091" format="1">
  <advance width="1372"/>
  <unicode hex="0449"/>
  <outline>
    <contour>
      <point x="1170" y="-238" type="line"/>
      <point x="1170" y="0" type="line"/>
      <point x="115" y="0" type="line"/>
      <point x="115" y="1098" type="line"/>
      <point x="283" y="1098" type="line"/>
      <point x="283" y="134" type="line"/>
      <point x="577" y="134" type="line"/>
      <point x="577" y="1098" type="line"/>
      <point x="745" y="1098" type="line"/>
      <point x="745" y="134" type="line"/>
      <point x="1039" y="134" type="line"/>
      <point x="1039" y="1098" type="line"/>
      <point x="1207" y="1098" type="line"/>
      <point x="1207" y="134" type="line"/>
      <point x="1307" y="134" type="line"/>
      <point x="1307" y="-238" type="line"/>
    </contour>
  </outline>
</glyph>
<glyph name="afii10092" format="1">
  <advance width="1152"/>
  <unicode hex="044A"/>
  <outline>
    <contour>
      <point x="429" y="1098" type="line"/>
      <point x="429" y="656" type="line"/>
      <point x="719" y="656" type="line" smooth="yes"/>
      <point x="986" y="656"/>
      <point x="1100" y="501"/>
      <point x="1100" y="337" type="curve" smooth="yes"/>
      <point x="1100" y="166"/>
      <point x="992" y="0"/>
      <point x="725" y="0" type="curve" smooth="yes"/>
      <point x="261" y="0" type="line"/>
      <point x="261" y="956" type="line"/>
      <point x="27" y="956" type="line"/>
      <point x="27" y="1098" type="line"/>
    </contour>
    <contour>
      <point x="740" y="520" type="curve" smooth="yes"/>
      <point x="429" y="520" type="line"/>
      <point x="429" y="134" type="line"/>
      <point x="746" y="134" type="line" smooth="yes"/>
      <point x="879" y="134"/>
      <point x="938" y="245"/>
      <point x="938" y="337" type="curve" smooth="yes"/>
      <point x="938" y="421"/>
      <point x="873" y="520"/>
    </contour>
  </outline>
</glyph>
<glyph name="afii10094" format="1">
  <advance width="952"/>
  <unicode hex="044C"/>
  <outline>
    <contour>
      <point x="283" y="1098" type="line"/>
      <point x="283" y="698" type="line"/>
      <point x="508" y="698" type="line" smooth="yes"/>
      <point x="776" y="698"/>
      <point x="887" y="538"/>
      <point x="887" y="358" type="curve" smooth="yes"/>
      <point x="887" y="178"/>
      <point x="783" y="0"/>
      <point x="515" y="0" type="curve" smooth="yes"/>
      <point x="115" y="0" type="line"/>
      <point x="115" y="1098" type="line"/>
    </contour>
    <contour>
      <point x="532" y="562" type="curve" smooth="yes"/>
      <point x="283" y="562" type="line"/>
      <point x="283" y="134" type="line"/>
      <point x="539" y="134" type="line" smooth="yes"/>
      <point x="671" y="134"/>
      <point x="725" y="262"/>
      <point x="725" y="361" type="curve" smooth="yes"/>
      <point x="725" y="460"/>
      <point x="664" y="562"/>
    </contour>
  </outline>
</glyph>
<glyph name="afii10095" format="1">
  <advance width="1002"/>
  <unicode hex="044D"/>
  <outline>
    <contour>
      <point x="380" y="-25" type="curve" smooth="yes"/>
      <point x="241" y="-25"/>
      <point x="123" y="11"/>
      <point x="55" y="70" type="curve"/>
      <point x="101" y="195" type="line"/>
      <point x="193" y="139"/>
      <point x="282" y="113"/>
      <point x="370" y="113" type="curve" smooth="yes"/>
      <point x="578" y="113"/>
      <point x="715" y="257"/>
      <point x="738" y="477" type="curve"/>
      <point x="275" y="477" type="line"/>
      <point x="275" y="619" type="line"/>
      <point x="738" y="619" type="line"/>
      <point x="716" y="840"/>
      <point x="596" y="986"/>
      <point x="369" y="986" type="curve" smooth="yes"/>
      <point x="261" y="986"/>
      <point x="167" y="945"/>
      <point x="100" y="902" type="curve"/>
      <point x="54" y="1024" type="line"/>
      <point x="132" y="1091"/>
      <point x="259" y="1124"/>
      <point x="377" y="1124" type="curve" smooth="yes"/>
      <point x="742" y="1124"/>
      <point x="915" y="853"/>
      <point x="915" y="545" type="curve" smooth="yes"/>
      <point x="915" y="249"/>
      <point x="736" y="-25"/>
    </contour>
  </outline>
</glyph>
<glyph name="afii10097" format="1">
  <advance width="1045"/>
  <unicode hex="044F"/>
  <outline>
    <contour>
      <point x="762" y="0" type="line"/>
      <point x="762" y="439" type="line"/>
      <point x="475" y="439" type="line"/>
      <point x="274" y="0" type="line"/>
      <point x="74" y="0" type="line"/>
      <point x="302" y="459" type="line"/>
      <point x="147" y="507"/>
      <point x="74" y="634"/>
      <point x="74" y="762" type="curve" smooth="yes"/>
      <point x="74" y="933"/>
      <point x="186" y="1098"/>
      <point x="455" y="1098" type="curve" smooth="yes"/>
      <point x="930" y="1098" type="line"/>
      <point x="930" y="0" type="line"/>
    </contour>
    <contour>
      <point x="444" y="579" type="curve" smooth="yes"/>
      <point x="762" y="579" type="line"/>
      <point x="762" y="956" type="line"/>
      <point x="444" y="956" type="line" smooth="yes"/>
      <point x="311" y="956"/>
      <point x="238" y="853"/>
      <point x="238" y="762" type="curve" smooth="yes"/>
      <point x="238" y="678"/>
      <point x="311" y="579"/>
    </contour>
  </outline>
</glyph>
<glyph name="afii10101" format="1">
  <advance width="1002"/>
  <unicode hex="0454"/>
  <outline>
    <contour>
      <point x="589" y="-25" type="curve" smooth="yes"/>
      <point x="233" y="-25"/>
      <point x="54" y="249"/>
      <point x="54" y="545" type="curve" smooth="yes"/>
      <point x="54" y="853"/>
      <point x="227" y="1124"/>
      <point x="592" y="1124" type="curve" smooth="yes"/>
      <point x="710" y="1124"/>
      <point x="837" y="1091"/>
      <point x="915" y="1024" type="curve"/>
      <point x="869" y="902" type="line"/>
      <point x="802" y="945"/>
      <point x="708" y="986"/>
      <point x="600" y="986" type="curve" smooth="yes"/>
      <point x="373" y="986"/>
      <point x="253" y="840"/>
      <point x="231" y="619" type="curve"/>
      <point x="694" y="619" type="line"/>
      <point x="694" y="477" type="line"/>
      <point x="231" y="477" type="line"/>
      <point x="254" y="257"/>
      <point x="391" y="113"/>
      <point x="599" y="113" type="curve" smooth="yes"/>
      <point x="687" y="113"/>
      <point x="776" y="139"/>
      <point x="868" y="195" type="curve"/>
      <point x="914" y="70" type="line"/>
      <point x="846" y="11"/>
      <point x="728" y="-25"/>
    </contour>
  </outline>
</glyph>
<glyph name="afii10106" format="1">
  <advance width="1740"/>
  <unicode hex="0459"/>
  <outline>
    <contour>
      <point x="1123" y="562" type="line"/>
      <point x="1123" y="134" type="line"/>
      <point x="1365" y="134" type="line" smooth="yes"/>
      <point x="1497" y="134"/>
      <point x="1551" y="262"/>
      <point x="1551" y="361" type="curve" smooth="yes"/>
      <point x="1551" y="460"/>
      <point x="1490" y="562"/>
      <point x="1358" y="562" type="curve" smooth="yes"/>
    </contour>
    <contour>
      <point x="316" y="409" type="curve" smooth="yes"/>
      <point x="316" y="1098" type="line"/>
      <point x="1123" y="1098" type="line"/>
      <point x="1123" y="698" type="line"/>
      <point x="1334" y="698" type="line" smooth="yes"/>
      <point x="1602" y="698"/>
      <point x="1713" y="538"/>
      <point x="1713" y="358" type="curve" smooth="yes"/>
      <point x="1713" y="178"/>
      <point x="1609" y="0"/>
      <point x="1341" y="0" type="curve" smooth="yes"/>
      <point x="955" y="0" type="line"/>
      <point x="955" y="956" type="line"/>
      <point x="484" y="956" type="line"/>
      <point x="484" y="419" type="line" smooth="yes"/>
      <point x="484" y="91"/>
      <point x="480" y="-25"/>
      <point x="175" y="-25" type="curve" smooth="yes"/>
      <point x="138" y="-25" type="line"/>
      <point x="128" y="128" type="line"/>
      <point x="175" y="128" type="line" smooth="yes"/>
      <point x="314" y="128"/>
      <point x="316" y="185"/>
    </contour>
  </outline>
</glyph>
<glyph name="afii10107" format="1">
  <advance width="1621"/>
  <unicode hex="045A"/>
  <outline>
    <contour>
      <point x="933" y="562" type="line"/>
      <point x="933" y="134" type="line"/>
      <point x="1171" y="134" type="line" smooth="yes"/>
      <point x="1303" y="134"/>
      <point x="1357" y="262"/>
      <point x="1357" y="361" type="curve" smooth="yes"/>
      <point x="1357" y="460"/>
      <point x="1296" y="562"/>
      <point x="1164" y="562" type="curve" smooth="yes"/>
    </contour>
    <contour>
      <point x="115" y="1098" type="line"/>
      <point x="283" y="1098" type="line"/>
      <point x="283" y="653" type="line"/>
      <point x="765" y="653" type="line"/>
      <point x="765" y="1098" type="line"/>
      <point x="933" y="1098" type="line"/>
      <point x="933" y="698" type="line"/>
      <point x="1140" y="698" type="line" smooth="yes"/>
      <point x="1408" y="698"/>
      <point x="1519" y="538"/>
      <point x="1519" y="358" type="curve" smooth="yes"/>
      <point x="1519" y="178"/>
      <point x="1415" y="0"/>
      <point x="1147" y="0" type="curve" smooth="yes"/>
      <point x="765" y="0" type="line"/>
      <point x="765" y="518" type="line"/>
      <point x="283" y="518" type="line"/>
      <point x="283" y="0" type="line"/>
      <point x="115" y="0" type="line"/>
    </contour>
  </outline>
</glyph>
<glyph name="afii10108" format="1">
  <advance width="1113"/>
  <unicode hex="045B"/>
  <outline>
    <contour>
      <point x="283" y="495" type="curve"/>
      <point x="283" y="0" type="line"/>
      <point x="115" y="0" type="line"/>
      <point x="115" y="1099" type="line"/>
      <point x="21" y="1099" type="line"/>
      <point x="21" y="1215" type="line"/>
      <point x="115" y="1215" type="line"/>
      <point x="115" y="1510" type="line"/>
      <point x="283" y="1510" type="line"/>
      <point x="283" y="1215" type="line"/>
      <point x="698" y="1215" type="line"/>
      <point x="698" y="1099" type="line"/>
      <point x="283" y="1099" type="line"/>
      <point x="283" y="713" type="line"/>
      <point x="371" y="824"/>
      <point x="486" y="892"/>
      <point x="636" y="892" type="curve" smooth="yes"/>
      <point x="893" y="892"/>
      <point x="1008" y="733"/>
      <point x="1008" y="445" type="curve" smooth="yes"/>
      <point x="1008" y="0" type="line"/>
      <point x="840" y="0" type="line"/>
      <point x="840" y="368" type="line" smooth="yes"/>
      <point x="840" y="616"/>
      <point x="807" y="739"/>
      <point x="620" y="739" type="curve" smooth="yes"/>
      <point x="449" y="739"/>
      <point x="310" y="599"/>
    </contour>
  </outline>
</glyph>
<glyph name="emdash" format="1">
  <advance width="2427"/>
  <unicode hex="2014"/>
  <outline>
    <contour>
      <point x="2296" y="675" type="line"/>
      <point x="2296" y="527" type="line"/>
      <point x="139" y="527" type="line"/>
      <point x="139" y="675" type="line"/>
    </contour>
  </outline>
</glyph>
<glyph name="quotesinglbase" format="1">
  <advance width="504"/>
  <unicode hex="201A"/>
  <outline>
    <contour>
      <point x="126" y="-256" type="line"/>
      <point x="218" y="216" type="line"/>
      <point x="379" y="216" type="line"/>
      <point x="245" y="-256" type="line"/>
    </contour>
  </outline>
</glyph>
<glyph name="quotedblleft" format="1">
  <advance width="818"/>
  <unicode hex="201C"/>
  <outline>
    <contour>
      <point x="438" y="1102" type="line"/>
      <point x="573" y="1574" type="line"/>
      <point x="690" y="1574" type="line"/>
      <point x="600" y="1102" type="line"/>
    </contour>
    <contour>
      <point x="129" y="1102" type="line"/>
      <point x="263" y="1574" type="line"/>
      <point x="383" y="1574" type="line"/>
      <point x="289" y="1102" type="line"/>
    </contour>
  </outline>
</glyph>
<glyph name="quotedblright" format="1">
  <advance width="795"/>
  <unicode hex="201D"/>
  <outline>
    <contour>
      <point x="133" y="1102" type="line"/>
      <point x="226" y="1574" type="line"/>
      <point x="385" y="1574" type="line"/>
      <point x="250" y="1102" type="line"/>
    </contour>
    <contour>
      <point x="420" y="1102" type="line"/>
      <point x="511" y="1574" type="line"/>
      <point x="674" y="1574" type="line"/>
      <point x="537" y="1102" type="line"/>
    </contour>
  </outline>
</glyph>
<glyph name="quotedblbase" format="1">
  <advance width="819"/>
  <unicode hex="201E"/>
  <outline>
    <contour>
      <point x="126" y="-256" type="line"/>
      <point x="216" y="216" type="line"/>
      <point x="377" y="216" type="line"/>
      <point x="244" y="-256" type="line"/>
    </contour>
    <contour>
      <point x="441" y="-256" type="line"/>
      <point x="532" y="216" type="line"/>
      <point x="694" y="216" type="line"/>
      <point x="559" y="-256" type="line"/>
    </contour>
  </outline>
</glyph>
<glyph name="dagger" format="1">
  <advance width="876"/>
  <unicode hex="2020"/>
  <outline>
    <contour>
      <point x="369" y="121" type="line"/>
      <point x="369" y="1047" type="line"/>
      <point x="71" y="1047" type="line"/>
      <point x="71" y="1149" type="line"/>
      <point x="369" y="1149" type="line"/>
      <point x="369" y="1561" type="line"/>
      <point x="499" y="1561" type="line"/>
      <point x="499" y="1149" type="line"/>
      <point x="806" y="1149" type="line"/>
      <point x="806" y="1047" type="line"/>
      <point x="499" y="1047" type="line"/>
      <point x="499" y="121" type="line"/>
    </contour>
  </outline>
</glyph>
<glyph name="daggerdbl" format="1">
  <advance width="950"/>
  <unicode hex="2021"/>
  <outline>
    <contour>
      <point x="413" y="604" type="line"/>
      <point x="413" y="1059" type="line"/>
      <point x="112" y="1059" type="line"/>
      <point x="112" y="1199" type="line"/>
      <point x="413" y="1199" type="line"/>
      <point x="413" y="1561" type="line"/>
      <point x="543" y="1561" type="line"/>
      <point x="543" y="1199" type="line"/>
      <point x="850" y="1199" type="line"/>
      <point x="850" y="1059" type="line"/>
      <point x="543" y="1059" type="line"/>
      <point x="543" y="604" type="line"/>
      <point x="843" y="604" type="line"/>
      <point x="843" y="467" type="line"/>
      <point x="543" y="467" type="line"/>
      <point x="543" y="121" type="line"/>
      <point x="413" y="121" type="line"/>
      <point x="413" y="467" type="line"/>
      <point x="107" y="467" type="line"/>
      <point x="107" y="604" type="line"/>
    </contour>
  </outline>
</glyph>
<glyph name="perthousand" format="1">
  <advance width="2303"/>
  <unicode hex="2030"/>
  <outline>
    <contour>
      <point x="1879" y="610" type="curve" smooth="yes"/>
      <point x="1743" y="610"/>
      <point x="1677" y="493"/>
      <point x="1677" y="354" type="curve" smooth="yes"/>
      <point x="1677" y="207"/>
      <point x="1744" y="93"/>
      <point x="1881" y="93" type="curve" smooth="yes"/>
      <point x="2014" y="93"/>
      <point x="2081" y="214"/>
      <point x="2081" y="354" type="curve" smooth="yes"/>
      <point x="2081" y="497"/>
      <point x="2011" y="610"/>
    </contour>
    <contour>
      <point x="1876" y="-30" type="curve" smooth="yes"/>
      <point x="1658" y="-30"/>
      <point x="1550" y="124"/>
      <point x="1550" y="354" type="curve" smooth="yes"/>
      <point x="1550" y="572"/>
      <point x="1658" y="735"/>
      <point x="1881" y="735" type="curve" smooth="yes"/>
      <point x="2101" y="735"/>
      <point x="2207" y="588"/>
      <point x="2207" y="352" type="curve" smooth="yes"/>
      <point x="2207" y="136"/>
      <point x="2097" y="-30"/>
    </contour>
    <contour>
      <point x="404" y="796" type="curve" smooth="yes"/>
      <point x="214" y="796"/>
      <point x="108" y="950"/>
      <point x="108" y="1180" type="curve" smooth="yes"/>
      <point x="108" y="1399"/>
      <point x="214" y="1559"/>
      <point x="406" y="1559" type="curve" smooth="yes"/>
      <point x="600" y="1559"/>
      <point x="702" y="1410"/>
      <point x="702" y="1176" type="curve" smooth="yes"/>
      <point x="702" y="960"/>
      <point x="593" y="796"/>
    </contour>
    <contour>
      <point x="1104" y="-30" type="curve" smooth="yes"/>
      <point x="884" y="-30"/>
      <point x="777" y="124"/>
      <point x="777" y="354" type="curve" smooth="yes"/>
      <point x="777" y="572"/>
      <point x="883" y="735"/>
      <point x="1107" y="735" type="curve" smooth="yes"/>
      <point x="1331" y="735"/>
      <point x="1434" y="584"/>
      <point x="1434" y="352" type="curve" smooth="yes"/>
      <point x="1434" y="136"/>
      <point x="1325" y="-30"/>
    </contour>
    <contour>
      <point x="1105" y="610" type="curve" smooth="yes"/>
      <point x="972" y="610"/>
      <point x="908" y="493"/>
      <point x="908" y="354" type="curve" smooth="yes"/>
      <point x="908" y="207"/>
      <point x="974" y="93"/>
      <point x="1107" y="93" type="curve" smooth="yes"/>
      <point x="1240" y="93"/>
      <point x="1305" y="217"/>
      <point x="1305" y="354" type="curve" smooth="yes"/>
      <point x="1305" y="500"/>
      <point x="1242" y="610"/>
    </contour>
    <contour>
      <point x="404" y="1438" type="curve" smooth="yes"/>
      <point x="291" y="1438"/>
      <point x="237" y="1319"/>
      <point x="237" y="1180" type="curve" smooth="yes"/>
      <point x="237" y="1033"/>
      <point x="292" y="919"/>
      <point x="408" y="919" type="curve" smooth="yes"/>
      <point x="519" y="919"/>
      <point x="574" y="1039"/>
      <point x="574" y="1178" type="curve" smooth="yes"/>
      <point x="574" y="1325"/>
      <point x="519" y="1438"/>
    </contour>
    <contour>
      <point x="395" y="-22" type="line"/>
      <point x="259" y="-22" type="line"/>
      <point x="1115" y="1547" type="line"/>
      <point x="1272" y="1547" type="line"/>
    </contour>
  </outline>
</glyph>
<glyph name="guilsinglleft" format="1">
  <advance width="620"/>
  <unicode hex="2039"/>
  <outline>
    <contour>
      <point x="361" y="982" type="line"/>
      <point x="501" y="982" type="line"/>
      <point x="269" y="583" type="line"/>
      <point x="495" y="182" type="line"/>
      <point x="356" y="182" type="line"/>
      <point x="120" y="583" type="line"/>
    </contour>
  </outline>
</glyph>
<glyph name="uni2074" format="1">
  <advance width="756"/>
  <unicode hex="2074"/>
  <outline>
    <contour>
      <point x="530" y="661" type="line"/>
      <point x="423" y="661" type="line"/>
      <point x="423" y="865" type="line"/>
      <point x="92" y="865" type="line"/>
      <point x="92" y="964" type="line"/>
      <point x="413" y="1519" type="line"/>
      <point x="532" y="1519" type="line"/>
      <point x="532" y="978" type="line"/>
      <point x="626" y="978" type="line"/>
      <point x="636" y="865" type="line"/>
      <point x="530" y="865" type="line"/>
    </contour>
    <contour>
      <point x="213" y="978" type="line"/>
      <point x="422" y="978" type="line"/>
      <point x="422" y="1230" type="line" smooth="yes"/>
      <point x="422" y="1282"/>
      <point x="422" y="1311"/>
      <point x="423" y="1339" type="curve"/>
    </contour>
  </outline>
</glyph>
<glyph name="Euro" format="1">
  <advance width="1210"/>
  <unicode hex="20AC"/>
  <outline>
    <contour>
      <point x="106" y="580" type="line"/>
      <point x="123" y="683" type="line"/>
      <point x="215" y="683" type="line"/>
      <point x="214" y="699"/>
      <point x="213" y="715"/>
      <point x="213" y="731" type="curve" smooth="yes"/>
      <point x="213" y="769"/>
      <point x="216" y="808"/>
      <point x="218" y="845" type="curve"/>
      <point x="105" y="845" type="line"/>
      <point x="124" y="957" type="line"/>
      <point x="234" y="957" type="line"/>
      <point x="285" y="1288"/>
      <point x="468" y="1524"/>
      <point x="796" y="1524" type="curve" smooth="yes"/>
      <point x="920" y="1524"/>
      <point x="1012" y="1494"/>
      <point x="1088" y="1429" type="curve"/>
      <point x="1087" y="1249" type="line"/>
      <point x="1020" y="1322"/>
      <point x="927" y="1369"/>
      <point x="818" y="1369" type="curve" smooth="yes"/>
      <point x="590" y="1369"/>
      <point x="466" y="1203"/>
      <point x="425" y="957" type="curve"/>
      <point x="983" y="957" type="line"/>
      <point x="966" y="845" type="line"/>
      <point x="407" y="845" type="line"/>
      <point x="402" y="796"/>
      <point x="404" y="684"/>
      <point x="402" y="683" type="curve"/>
      <point x="951" y="683" type="line"/>
      <point x="941" y="580" type="line"/>
      <point x="419" y="580" type="line"/>
      <point x="447" y="345"/>
      <point x="564" y="135"/>
      <point x="800" y="135" type="curve" smooth="yes"/>
      <point x="896" y="135"/>
      <point x="992" y="169"/>
      <point x="1088" y="244" type="curve"/>
      <point x="1087" y="69" type="line"/>
      <point x="999" y="5"/>
      <point x="900" y="-22"/>
      <point x="781" y="-22" type="curve" smooth="yes"/>
      <point x="433" y="-22"/>
      <point x="270" y="287"/>
      <point x="227" y="580" type="curve"/>
    </contour>
  </outline>
</glyph>
<glyph name="trademark" format="1">
  <advance width="1812"/>
  <unicode hex="2122"/>
  <outline>
    <contour>
      <point x="849" y="1496" type="line"/>
      <point x="1006" y="1496" type="line"/>
      <point x="1274" y="824" type="line"/>
      <point x="1555" y="1496" type="line"/>
      <point x="1704" y="1496" type="line"/>
      <point x="1704" y="609" type="line"/>
      <point x="1590" y="609" type="line"/>
      <point x="1590" y="1349" type="line"/>
      <point x="1310" y="680" type="line"/>
      <point x="1224" y="680" type="line"/>
      <point x="960" y="1349" type="line"/>
      <point x="960" y="609" type="line"/>
      <point x="849" y="609" type="line"/>
    </contour>
    <contour>
      <point x="90" y="1496" type="line"/>
      <point x="727" y="1496" type="line"/>
      <point x="727" y="1394" type="line"/>
      <point x="463" y="1394" type="line"/>
      <point x="463" y="609" type="line"/>
      <point x="349" y="609" type="line"/>
      <point x="349" y="1394" type="line"/>
      <point x="90" y="1394" type="line"/>
    </contour>
  </outline>
</glyph>
<glyph name="partialdiff" format="1">
  <advance width="1208"/>
  <unicode hex="2202"/>
  <outline>
    <contour>
      <point x="511" y="119" type="curve" smooth="yes"/>
      <point x="728" y="119"/>
      <point x="872" y="383"/>
      <point x="904" y="705" type="curve"/>
      <point x="869" y="826"/>
      <point x="775" y="935"/>
      <point x="631" y="935" type="curve" smooth="yes"/>
      <point x="423" y="935"/>
      <point x="261" y="711"/>
      <point x="261" y="450" type="curve" smooth="yes"/>
      <point x="261" y="250"/>
      <point x="358" y="119"/>
    </contour>
    <contour>
      <point x="301" y="1405" type="curve"/>
      <point x="288" y="1553" type="line"/>
      <point x="372" y="1610"/>
      <point x="486" y="1652"/>
      <point x="609" y="1652" type="curve" smooth="yes"/>
      <point x="907" y="1652"/>
      <point x="1069" y="1421"/>
      <point x="1069" y="917" type="curve" smooth="yes"/>
      <point x="1069" y="453"/>
      <point x="905" y="-28"/>
      <point x="510" y="-28" type="curve" smooth="yes"/>
      <point x="234" y="-28"/>
      <point x="113" y="182"/>
      <point x="113" y="452" type="curve" smooth="yes"/>
      <point x="113" y="806"/>
      <point x="317" y="1077"/>
      <point x="606" y="1077" type="curve" smooth="yes"/>
      <point x="743" y="1077"/>
      <point x="849" y="1014"/>
      <point x="917" y="901" type="curve"/>
      <point x="917" y="920"/>
      <point x="918" y="952"/>
      <point x="918" y="980" type="curve" smooth="yes"/>
      <point x="918" y="1305"/>
      <point x="802" y="1507"/>
      <point x="585" y="1507" type="curve" smooth="yes"/>
      <point x="483" y="1507"/>
      <point x="381" y="1461"/>
    </contour>
  </outline>
</glyph>
<glyph name="summation" format="1">
  <advance width="1286"/>
  <unicode hex="2211"/>
  <outline>
    <contour>
      <point x="1203" y="-195" type="line"/>
      <point x="1203" y="-356" type="line"/>
      <point x="82" y="-356" type="line"/>
      <point x="82" y="-257" type="line"/>
      <point x="702" y="596" type="line"/>
      <point x="104" y="1430" type="line"/>
      <point x="104" y="1532" type="line"/>
      <point x="1163" y="1532" type="line"/>
      <point x="1163" y="1379" type="line"/>
      <point x="317" y="1379" type="line"/>
      <point x="913" y="604" type="line"/>
      <point x="292" y="-195" type="line"/>
    </contour>
  </outline>
</glyph>
<glyph name="radical" format="1">
  <advance width="1216"/>
  <unicode hex="221A"/>
  <outline>
    <contour>
      <point x="1035" y="1718" type="curve"/>
      <point x="1148" y="1718" type="line"/>
      <point x="708" y="-166" type="line"/>
      <point x="569" y="-166" type="line"/>
      <point x="236" y="743" type="line"/>
      <point x="84" y="712" type="line"/>
      <point x="68" y="833" type="line"/>
      <point x="328" y="889" type="line"/>
      <point x="569" y="230" type="line"/>
      <point x="628" y="44" type="line"/>
      <point x="763" y="602"/>
      <point x="899" y="1160"/>
    </contour>
  </outline>
</glyph>
<glyph name="infinity" format="1">
  <advance width="1811"/>
  <unicode hex="221E"/>
  <outline>
    <contour>
      <point x="1555" y="665" type="curve" smooth="yes"/>
      <point x="1555" y="789"/>
      <point x="1457" y="893"/>
      <point x="1321" y="893" type="curve" smooth="yes"/>
      <point x="1182" y="893"/>
      <point x="1071" y="770"/>
      <point x="982" y="638" type="curve"/>
      <point x="1105" y="470"/>
      <point x="1199" y="381"/>
      <point x="1326" y="381" type="curve" smooth="yes"/>
      <point x="1482" y="381"/>
      <point x="1555" y="507"/>
    </contour>
    <contour>
      <point x="248" y="638" type="curve" smooth="yes"/>
      <point x="248" y="508"/>
      <point x="347" y="381"/>
      <point x="495" y="381" type="curve" smooth="yes"/>
      <point x="628" y="381"/>
      <point x="744" y="497"/>
      <point x="838" y="636" type="curve"/>
      <point x="745" y="783"/>
      <point x="631" y="893"/>
      <point x="487" y="893" type="curve" smooth="yes"/>
      <point x="339" y="893"/>
      <point x="248" y="775"/>
    </contour>
    <contour>
      <point x="1678" y="642" type="curve" smooth="yes"/>
      <point x="1678" y="413"/>
      <point x="1522" y="254"/>
      <point x="1323" y="254" type="curve" smooth="yes"/>
      <point x="1171" y="254"/>
      <point x="1045" y="344"/>
      <point x="909" y="525" type="curve"/>
      <point x="789" y="367"/>
      <point x="660" y="254"/>
      <point x="493" y="254" type="curve" smooth="yes"/>
      <point x="266" y="254"/>
      <point x="135" y="440"/>
      <point x="135" y="659" type="curve" smooth="yes"/>
      <point x="135" y="858"/>
      <point x="291" y="1017"/>
      <point x="488" y="1017" type="curve" smooth="yes"/>
      <point x="659" y="1017"/>
      <point x="786" y="909"/>
      <point x="909" y="745" type="curve"/>
      <point x="1024" y="903"/>
      <point x="1151" y="1017"/>
      <point x="1326" y="1017" type="curve" smooth="yes"/>
      <point x="1554" y="1017"/>
      <point x="1678" y="860"/>
    </contour>
  </outline>
</glyph>
<glyph name="integral" format="1">
  <advance width="698"/>
  <unicode hex="222B"/>
  <outline>
    <contour>
      <point x="277" y="-50" type="curve" smooth="yes"/>
      <point x="277" y="1351" type="line" smooth="yes"/>
      <point x="277" y="1583"/>
      <point x="341" y="1756"/>
      <point x="540" y="1756" type="curve" smooth="yes"/>
      <point x="591" y="1756"/>
      <point x="620" y="1745"/>
      <point x="661" y="1733" type="curve"/>
      <point x="662" y="1594" type="line"/>
      <point x="639" y="1605"/>
      <point x="601" y="1610"/>
      <point x="566" y="1610" type="curve" smooth="yes"/>
      <point x="446" y="1610"/>
      <point x="421" y="1531"/>
      <point x="421" y="1379" type="curve" smooth="yes"/>
      <point x="421" y="-25" type="line" smooth="yes"/>
      <point x="421" y="-257"/>
      <point x="361" y="-429"/>
      <point x="162" y="-429" type="curve" smooth="yes"/>
      <point x="111" y="-429"/>
      <point x="82" y="-421"/>
      <point x="41" y="-409" type="curve"/>
      <point x="40" y="-270" type="line"/>
      <point x="63" y="-281"/>
      <point x="98" y="-284"/>
      <point x="133" y="-284" type="curve" smooth="yes"/>
      <point x="253" y="-284"/>
      <point x="277" y="-202"/>
    </contour>
  </outline>
</glyph>
<glyph name="notequal" format="1">
  <advance width="1191"/>
  <unicode hex="2260"/>
  <outline>
    <contour>
      <point x="798" y="1207" type="line"/>
      <point x="913" y="1191" type="line"/>
      <point x="796" y="915" type="line"/>
      <point x="1074" y="915" type="line"/>
      <point x="1083" y="783" type="line"/>
      <point x="737" y="783" type="line"/>
      <point x="581" y="479" type="line"/>
      <point x="1076" y="479" type="line"/>
      <point x="1083" y="352" type="line"/>
      <point x="521" y="352" type="line"/>
      <point x="376" y="48" type="line"/>
      <point x="263" y="68" type="line"/>
      <point x="382" y="352" type="line"/>
      <point x="121" y="352" type="line"/>
      <point x="114" y="479" type="line"/>
      <point x="446" y="479" type="line"/>
      <point x="598" y="783" type="line"/>
      <point x="121" y="783" type="line"/>
      <point x="112" y="915" type="line"/>
      <point x="657" y="915" type="line"/>
    </contour>
  </outline>
</glyph>
<glyph name="greaterequal" format="1">
  <advance width="1183"/>
  <unicode hex="2265"/>
  <outline>
    <contour>
      <point x="1080" y="141" type="line"/>
      <point x="1080" y="8" type="line"/>
      <point x="120" y="8" type="line"/>
      <point x="120" y="141" type="line"/>
    </contour>
    <contour>
      <point x="150" y="1164" type="line"/>
      <point x="150" y="1314" type="line"/>
      <point x="1063" y="806" type="line"/>
      <point x="1063" y="719" type="line"/>
      <point x="146" y="234" type="line"/>
      <point x="146" y="385" type="line"/>
      <point x="908" y="762" type="line"/>
    </contour>
  </outline>
</glyph>
<glyph name="lozenge" format="1">
  <advance width="1142"/>
  <unicode hex="25CA"/>
  <outline>
    <contour>
      <point x="565" y="106" type="curve"/>
      <point x="684" y="326"/>
      <point x="804" y="546"/>
      <point x="923" y="766" type="curve"/>
      <point x="808" y="985"/>
      <point x="690" y="1203"/>
      <point x="577" y="1424" type="curve"/>
      <point x="457" y="1206"/>
      <point x="338" y="987"/>
      <point x="219" y="768" type="curve"/>
      <point x="335" y="548"/>
      <point x="446" y="323"/>
    </contour>
    <contour>
      <point x="630" y="1583" type="line"/>
      <point x="1055" y="768" type="line"/>
      <point x="621" y="-48" type="line"/>
      <point x="512" y="-48" type="line"/>
      <point x="87" y="766" type="line"/>
      <point x="519" y="1583" type="line"/>
    </contour>
  </outline>
</glyph>
<glyph name="uniFB00" format="1">
  <advance width="1187"/>
  <unicode hex="FB00"/>
  <outline>
    <contour>
      <point x="181" y="0" type="line"/>
      <point x="181" y="980" type="line"/>
      <point x="20" y="980" type="line"/>
      <point x="20" y="1098" type="line"/>
      <point x="181" y="1098" type="line"/>
      <point x="181" y="1450"/>
      <point x="266" y="1536"/>
      <point x="539" y="1536" type="curve" smooth="yes"/>
      <point x="612" y="1536" type="line"/>
      <point x="632" y="1408" type="line"/>
      <point x="538" y="1408" type="line" smooth="yes"/>
      <point x="355" y="1408"/>
      <point x="349" y="1331"/>
      <point x="349" y="1098" type="curve"/>
      <point x="766" y="1098" type="line"/>
      <point x="766" y="1450"/>
      <point x="851" y="1536"/>
      <point x="1124" y="1536" type="curve" smooth="yes"/>
      <point x="1197" y="1536" type="line"/>
      <point x="1217" y="1408" type="line"/>
      <point x="1123" y="1408" type="line" smooth="yes"/>
      <point x="940" y="1408"/>
      <point x="934" y="1331"/>
      <point x="934" y="1098" type="curve"/>
      <point x="1183" y="1098" type="line"/>
      <point x="1183" y="980" type="line"/>
      <point x="934" y="980" type="line"/>
      <point x="934" y="0" type="line"/>
      <point x="766" y="0" type="line"/>
      <point x="766" y="980" type="line"/>
      <point x="349" y="980" type="line"/>
      <point x="349" y="0" type="line"/>
    </contour>
  </outline>
</glyph>
<glyph name="uniFB01" format="1">
  <advance width="1088"/>
  <unicode hex="FB01"/>
  <outline>
    <contour>
      <point x="788" y="1496" type="line"/>
      <point x="956" y="1496" type="line"/>
      <point x="956" y="1298" type="line"/>
      <point x="788" y="1298" type="line"/>
    </contour>
    <contour>
      <point x="181" y="0" type="line"/>
      <point x="181" y="980" type="line"/>
      <point x="20" y="980" type="line"/>
      <point x="20" y="1098" type="line"/>
      <point x="181" y="1098" type="line"/>
      <point x="181" y="1450"/>
      <point x="266" y="1536"/>
      <point x="539" y="1536" type="curve" smooth="yes"/>
      <point x="612" y="1536" type="line"/>
      <point x="632" y="1408" type="line"/>
      <point x="538" y="1408" type="line" smooth="yes"/>
      <point x="355" y="1408"/>
      <point x="349" y="1331"/>
      <point x="349" y="1098" type="curve"/>
      <point x="956" y="1098" type="line"/>
      <point x="956" y="0" type="line"/>
      <point x="788" y="0" type="line"/>
      <point x="788" y="980" type="line"/>
      <point x="349" y="980" type="line"/>
      <point x="349" y="0" type="line"/>
    </contour>
  </outline>
</glyph>
<glyph name="fj" format="1">
  <advance width="1033"/>
  <outline>
    <contour>
      <point x="534" y="-502" type="line"/>
      <point x="512" y="-351" type="line"/>
      <point x="564" y="-351" type="line" smooth="yes"/>
      <point x="746" y="-351"/>
      <point x="751" y="-286"/>
      <point x="751" y="-121" type="curve" smooth="yes"/>
      <point x="751" y="980" type="line"/>
      <point x="348" y="980" type="line"/>
      <point x="348" y="0" type="line"/>
      <point x="180" y="0" type="line"/>
      <point x="180" y="980" type="line"/>
      <point x="20" y="980" type="line"/>
      <point x="20" y="1098" type="line"/>
      <point x="180" y="1098" type="line"/>
      <point x="180" y="1450"/>
      <point x="265" y="1536"/>
      <point x="538" y="1536" type="curve" smooth="yes"/>
      <point x="611" y="1536" type="line"/>
      <point x="631" y="1408" type="line"/>
      <point x="537" y="1408" type="line" smooth="yes"/>
      <point x="354" y="1408"/>
      <point x="348" y="1331"/>
      <point x="348" y="1098" type="curve"/>
      <point x="919" y="1098" type="line"/>
      <point x="919" y="-139" type="line" smooth="yes"/>
      <point x="919" y="-407"/>
      <point x="859" y="-502"/>
      <point x="586" y="-502" type="curve" smooth="yes"/>
    </contour>
    <contour>
      <point x="751" y="1496" type="line"/>
      <point x="919" y="1496" type="line"/>
      <point x="919" y="1298" type="line"/>
      <point x="751" y="1298" type="line"/>
    </contour>
  </outline>
</glyph>
